  0
SECTION
  2
HEADER
  9
$ACADVER
  1
AC1009
  9
$INSUNITS
 70
     1
  0
ENDSEC
  0
SECTION
  2
TABLES
  0
TABLE
  2
LAYER
 70
     8
  0
LAYER
  2
0
 62
     7
 70
0
  6
CONTINUOUS
  0
LAYER
  2
1
 62
     1
 70
0
  6
CONTINUOUS
  0
LAYER
  2
2
 62
     2
 70
0
  6
CONTINUOUS
  0
LAYER
  2
3
 62
     3
 70
0
  6
CONTINUOUS
  0
LAYER
  2
4
 62
     4
 70
0
  6
CONTINUOUS
  0
LAYER
  2
5
 62
     5
 70
0
  6
CONTINUOUS
  0
LAYER
  2
6
 62
     6
 70
0
  6
CONTINUOUS
  0
LAYER
  2
7
 62
     7
 70
0
  6
CONTINUOUS
  0
ENDTAB
  0
TABLE
  2
STYLE
 70
     1
  0
STYLE
 70
     0
  2
STANDARD
  3
TXT
 40
0.00
 41
1.00
 42
1.00
 50
0.00
 71
     0
  0
ENDTAB
  0
ENDSEC
  0
SECTION
  2
BLOCKS
  0
BLOCK
  8
0
  2
EPAD
 70
0
 10
0.0
 20
0.0
  0
POLYLINE
  8
0
 66
1
 70
1
 40
0.5
 41
0.5
  0
VERTEX
  8
0
 10
-0.25
 20
0.0
 42
1.0
  0
VERTEX
  8
0
 10
0.25
 20
0.0
 42
1.0
  0
SEQEND
  8
0
  0
ENDBLK
  8
0
  0
BLOCK
  8
0
  2
RPAD
 70
0
 10
0.0
 20
0.0
  0
TRACE
  8
0
 10
-0.5
 20
-0.5
 11
-0.5
 21
0.5
 12
0.5
 22
-0.5
 13
0.5
 23
0.5
  0
ENDBLK
  8
0
  0
ENDSEC
0
SECTION
2
ENTITIES
0
POLYLINE
8
0
66
1
40
0.016000
41
0.016000
0
VERTEX
8
0
10
2.200000
20
2.300000
0
VERTEX
8
0
10
2.100000
20
2.300000
0
VERTEX
8
0
10
2.100000
20
2.800000
0
VERTEX
8
0
10
0.900000
20
2.800000
0
VERTEX
8
0
10
0.900000
20
2.600000
0
SEQEND
8
0
0
POLYLINE
8
0
66
1
40
0.016000
41
0.016000
0
VERTEX
8
0
10
-0.200000
20
2.000000
0
VERTEX
8
0
10
-0.200000
20
1.800000
0
VERTEX
8
0
10
1.000000
20
1.800000
0
VERTEX
8
0
10
1.000000
20
2.100000
0
SEQEND
8
0
0
POLYLINE
8
0
66
1
40
0.016000
41
0.016000
0
VERTEX
8
0
10
0.000000
20
2.000000
0
VERTEX
8
0
10
0.000000
20
1.900000
0
VERTEX
8
0
10
0.800000
20
1.900000
0
VERTEX
8
0
10
0.800000
20
2.100000
0
SEQEND
8
0
0
POLYLINE
8
0
66
1
40
0.016000
41
0.016000
0
VERTEX
8
0
10
4.100000
20
0.100000
0
VERTEX
8
0
10
4.000000
20
0.100000
0
VERTEX
8
0
10
4.000000
20
0.400000
0
VERTEX
8
0
10
3.300000
20
0.400000
0
VERTEX
8
0
10
3.300000
20
0.300000
0
SEQEND
8
0
0
POLYLINE
8
0
66
1
40
0.016000
41
0.016000
0
VERTEX
8
0
10
3.200000
20
-0.200000
0
VERTEX
8
0
10
3.200000
20
-0.400000
0
VERTEX
8
0
10
2.300000
20
-0.400000
0
VERTEX
8
0
10
2.300000
20
-0.300000
0
SEQEND
8
0
0
POLYLINE
8
0
66
1
40
0.016000
41
0.016000
0
VERTEX
8
0
10
3.400000
20
-0.200000
0
VERTEX
8
0
10
3.400000
20
-0.500000
0
VERTEX
8
0
10
2.100000
20
-0.500000
0
VERTEX
8
0
10
2.100000
20
-0.300000
0
SEQEND
8
0
0
POLYLINE
8
0
66
1
40
0.016000
41
0.016000
0
VERTEX
8
0
10
-0.600000
20
2.500000
0
VERTEX
8
0
10
-0.900000
20
2.500000
0
VERTEX
8
0
10
-0.900000
20
2.600000
0
VERTEX
8
0
10
-1.100000
20
2.600000
0
SEQEND
8
0
0
POLYLINE
8
0
66
1
40
0.016000
41
0.016000
0
VERTEX
8
0
10
-1.100000
20
2.500000
0
VERTEX
8
0
10
-1.100000
20
2.600000
0
SEQEND
8
0
0
POLYLINE
8
0
66
1
40
0.016000
41
0.016000
0
VERTEX
8
0
10
-0.600000
20
2.200000
0
VERTEX
8
0
10
-1.000000
20
2.200000
0
SEQEND
8
0
0
POLYLINE
8
0
66
1
40
0.016000
41
0.016000
0
VERTEX
8
0
10
-1.100000
20
2.200000
0
VERTEX
8
0
10
-1.000000
20
2.200000
0
SEQEND
8
0
0
POLYLINE
8
0
66
1
40
0.016000
41
0.016000
0
VERTEX
8
0
10
-1.100000
20
1.700000
0
VERTEX
8
0
10
-1.100000
20
1.800000
0
VERTEX
8
0
10
-1.000000
20
1.800000
0
VERTEX
8
0
10
-1.000000
20
2.200000
0
SEQEND
8
0
0
POLYLINE
8
0
66
1
40
0.016000
41
0.016000
0
VERTEX
8
0
10
1.100000
20
-0.100000
0
VERTEX
8
0
10
1.100000
20
-0.200000
0
VERTEX
8
0
10
1.200000
20
-0.200000
0
SEQEND
8
0
0
POLYLINE
8
0
66
1
40
0.016000
41
0.016000
0
VERTEX
8
0
10
1.700000
20
-0.100000
0
VERTEX
8
0
10
1.600000
20
-0.100000
0
VERTEX
8
0
10
1.600000
20
-0.200000
0
VERTEX
8
0
10
1.200000
20
-0.200000
0
SEQEND
8
0
0
POLYLINE
8
0
66
1
40
0.016000
41
0.016000
0
VERTEX
8
0
10
1.100000
20
-0.600000
0
VERTEX
8
0
10
1.100000
20
-0.500000
0
VERTEX
8
0
10
1.200000
20
-0.500000
0
VERTEX
8
0
10
1.200000
20
-0.200000
0
SEQEND
8
0
0
POLYLINE
8
0
66
1
40
0.016000
41
0.016000
0
VERTEX
8
0
10
-1.400000
20
1.400000
0
VERTEX
8
0
10
-1.800000
20
1.400000
0
SEQEND
8
0
0
POLYLINE
8
0
66
1
40
0.016000
41
0.016000
0
VERTEX
8
0
10
0.800000
20
-0.900000
0
VERTEX
8
0
10
0.300000
20
-0.900000
0
SEQEND
8
0
0
POLYLINE
8
0
66
1
40
0.016000
41
0.016000
0
VERTEX
8
0
10
0.300000
20
-1.400000
0
VERTEX
8
0
10
-0.700000
20
-1.400000
0
VERTEX
8
0
10
-0.700000
20
1.100000
0
VERTEX
8
0
10
-1.100000
20
1.100000
0
SEQEND
8
0
0
POLYLINE
8
0
66
1
40
0.016000
41
0.016000
0
VERTEX
8
0
10
0.300000
20
-1.400000
0
VERTEX
8
0
10
1.100000
20
-1.400000
0
VERTEX
8
0
10
1.100000
20
-1.200000
0
SEQEND
8
0
0
POLYLINE
8
0
66
1
40
0.016000
41
0.016000
0
VERTEX
8
0
10
0.200000
20
-1.700000
0
VERTEX
8
0
10
0.200000
20
-1.500000
0
VERTEX
8
0
10
0.300000
20
-1.500000
0
VERTEX
8
0
10
0.300000
20
-1.400000
0
SEQEND
8
0
0
POLYLINE
8
0
66
1
40
0.016000
41
0.016000
0
VERTEX
8
0
10
-0.100000
20
2.700000
0
VERTEX
8
0
10
-0.100000
20
2.900000
0
VERTEX
8
0
10
4.400000
20
2.900000
0
VERTEX
8
0
10
4.400000
20
2.600000
0
SEQEND
8
0
0
POLYLINE
8
0
66
1
40
0.016000
41
0.016000
0
VERTEX
8
0
10
2.200000
20
0.400000
0
VERTEX
8
0
10
2.200000
20
0.600000
0
VERTEX
8
0
10
4.600000
20
0.600000
0
SEQEND
8
0
0
POLYLINE
8
0
66
1
40
0.016000
41
0.016000
0
VERTEX
8
0
10
4.700000
20
0.100000
0
VERTEX
8
0
10
4.800000
20
0.100000
0
VERTEX
8
0
10
4.800000
20
0.600000
0
VERTEX
8
0
10
4.600000
20
0.600000
0
SEQEND
8
0
0
POLYLINE
8
0
66
1
40
0.016000
41
0.016000
0
VERTEX
8
0
10
2.800000
20
2.300000
0
VERTEX
8
0
10
4.400000
20
2.300000
0
SEQEND
8
0
0
POLYLINE
8
0
66
1
40
0.016000
41
0.016000
0
VERTEX
8
0
10
4.400000
20
2.600000
0
VERTEX
8
0
10
4.400000
20
2.300000
0
SEQEND
8
0
0
POLYLINE
8
0
66
1
40
0.016000
41
0.016000
0
VERTEX
8
0
10
4.600000
20
0.600000
0
VERTEX
8
0
10
4.600000
20
2.300000
0
VERTEX
8
0
10
4.400000
20
2.300000
0
SEQEND
8
0
0
POLYLINE
8
0
66
1
40
0.016000
41
0.016000
0
VERTEX
8
0
10
-2.300000
20
1.400000
0
VERTEX
8
0
10
-2.400000
20
1.400000
0
VERTEX
8
0
10
-2.400000
20
-0.200000
0
VERTEX
8
0
10
-2.600000
20
-0.200000
0
SEQEND
8
0
0
POLYLINE
8
0
66
1
40
0.016000
41
0.016000
0
VERTEX
8
0
10
-0.200000
20
-0.900000
0
VERTEX
8
0
10
-0.300000
20
-0.900000
0
VERTEX
8
0
10
-0.300000
20
-0.100000
0
VERTEX
8
0
10
-2.600000
20
-0.100000
0
SEQEND
8
0
0
POLYLINE
8
0
66
1
40
0.016000
41
0.016000
0
VERTEX
8
0
10
-2.600000
20
-0.500000
0
VERTEX
8
0
10
-0.400000
20
-0.500000
0
VERTEX
8
0
10
-0.400000
20
-2.700000
0
VERTEX
8
0
10
1.970000
20
-2.700000
0
SEQEND
8
0
0
POLYLINE
8
0
66
1
40
0.016000
41
0.016000
0
VERTEX
8
0
10
-2.600000
20
-0.600000
0
VERTEX
8
0
10
-0.600000
20
-0.600000
0
VERTEX
8
0
10
-0.600000
20
-2.600000
0
VERTEX
8
0
10
1.970000
20
-2.600000
0
SEQEND
8
0
0
POLYLINE
8
0
66
1
40
0.016000
41
0.016000
0
VERTEX
8
0
10
-2.500000
20
3.000000
0
VERTEX
8
0
10
-2.500000
20
2.600000
0
VERTEX
8
0
10
-1.700000
20
2.600000
0
VERTEX
8
0
10
-1.100000
20
2.600000
0
SEQEND
8
0
0
POLYLINE
8
0
66
1
40
0.016000
41
0.016000
0
VERTEX
8
0
10
1.700000
20
0.200000
0
VERTEX
8
0
10
1.300000
20
0.200000
0
VERTEX
8
0
10
1.300000
20
0.300000
0
VERTEX
8
0
10
1.200000
20
0.300000
0
VERTEX
8
0
10
1.100000
20
0.300000
0
VERTEX
8
0
10
1.100000
20
0.200000
0
SEQEND
8
0
0
POLYLINE
8
0
66
1
40
0.016000
41
0.016000
0
VERTEX
8
0
10
-1.700000
20
2.600000
0
VERTEX
8
0
10
-1.700000
20
1.800000
0
VERTEX
8
0
10
-1.200000
20
1.800000
0
VERTEX
8
0
10
-1.200000
20
1.900000
0
VERTEX
8
0
10
-0.300000
20
1.900000
0
VERTEX
8
0
10
-0.300000
20
0.400000
0
VERTEX
8
0
10
1.200000
20
0.400000
0
VERTEX
8
0
10
1.200000
20
0.300000
0
SEQEND
8
0
0
CIRCLE
8
0
10
2.500000
20
2.300000
40
0.200000
0
POLYLINE
8
0
66
1
40
0.010000
41
0.010000
0
VERTEX
8
0
10
2.550000
20
2.390000
0
VERTEX
8
0
10
2.561172
20
2.385723
0
VERTEX
8
0
10
2.571875
20
2.380156
0
VERTEX
8
0
10
2.581641
20
2.372949
0
VERTEX
8
0
10
2.590000
20
2.363750
0
VERTEX
8
0
10
2.596484
20
2.352207
0
VERTEX
8
0
10
2.600625
20
2.337969
0
VERTEX
8
0
10
2.601953
20
2.320683
0
VERTEX
8
0
10
2.600000
20
2.300000
0
SEQEND
8
0
0
POLYLINE
8
0
66
1
40
0.010000
41
0.010000
0
VERTEX
8
0
10
2.500000
20
2.290000
0
VERTEX
8
0
10
2.507031
20
2.290879
0
VERTEX
8
0
10
2.513125
20
2.293281
0
VERTEX
8
0
10
2.522500
20
2.301250
0
VERTEX
8
0
10
2.528125
20
2.311094
0
VERTEX
8
0
10
2.530000
20
2.320000
0
SEQEND
8
0
0
POLYLINE
8
0
66
1
40
0.010000
41
0.010000
0
VERTEX
8
0
10
2.450000
20
2.390000
0
VERTEX
8
0
10
2.469587
20
2.387813
0
VERTEX
8
0
10
2.486230
20
2.381875
0
VERTEX
8
0
10
2.500032
20
2.373125
0
VERTEX
8
0
10
2.511094
20
2.362500
0
VERTEX
8
0
10
2.519519
20
2.350937
0
VERTEX
8
0
10
2.525410
20
2.339375
0
VERTEX
8
0
10
2.528870
20
2.328750
0
VERTEX
8
0
10
2.530000
20
2.320000
0
SEQEND
8
0
0
POLYLINE
8
0
66
1
40
0.010000
41
0.010000
0
VERTEX
8
0
10
2.450000
20
2.390000
0
VERTEX
8
0
10
2.438828
20
2.385723
0
VERTEX
8
0
10
2.428125
20
2.380156
0
VERTEX
8
0
10
2.418359
20
2.372949
0
VERTEX
8
0
10
2.410000
20
2.363750
0
VERTEX
8
0
10
2.403516
20
2.352207
0
VERTEX
8
0
10
2.399375
20
2.337969
0
VERTEX
8
0
10
2.398047
20
2.320683
0
VERTEX
8
0
10
2.400000
20
2.300000
0
SEQEND
8
0
0
POLYLINE
8
0
66
1
40
0.010000
41
0.010000
0
VERTEX
8
0
10
2.500000
20
2.290000
0
VERTEX
8
0
10
2.492969
20
2.290879
0
VERTEX
8
0
10
2.486875
20
2.293281
0
VERTEX
8
0
10
2.477500
20
2.301250
0
VERTEX
8
0
10
2.471875
20
2.311094
0
VERTEX
8
0
10
2.470000
20
2.320000
0
SEQEND
8
0
0
POLYLINE
8
0
66
1
40
0.010000
41
0.010000
0
VERTEX
8
0
10
2.300000
20
2.300000
0
VERTEX
8
0
10
2.400000
20
2.300000
0
SEQEND
8
0
0
POLYLINE
8
0
66
1
40
0.010000
41
0.010000
0
VERTEX
8
0
10
2.600000
20
2.300000
0
VERTEX
8
0
10
2.700000
20
2.300000
0
SEQEND
8
0
0
POLYLINE
8
0
66
1
40
0.010000
41
0.010000
0
VERTEX
8
0
10
2.550000
20
2.390000
0
VERTEX
8
0
10
2.530413
20
2.387813
0
VERTEX
8
0
10
2.513770
20
2.381875
0
VERTEX
8
0
10
2.499968
20
2.373125
0
VERTEX
8
0
10
2.488906
20
2.362500
0
VERTEX
8
0
10
2.480481
20
2.350937
0
VERTEX
8
0
10
2.474590
20
2.339375
0
VERTEX
8
0
10
2.471130
20
2.328750
0
VERTEX
8
0
10
2.470000
20
2.320000
0
SEQEND
8
0
0
POLYLINE
8
0
66
1
40
0.010000
41
0.010000
0
VERTEX
8
0
10
2.300000
20
2.450000
0
VERTEX
8
0
10
2.240000
20
2.490000
0
SEQEND
8
0
0
POLYLINE
8
0
66
1
40
0.010000
41
0.010000
0
VERTEX
8
0
10
2.400000
20
2.530000
0
VERTEX
8
0
10
2.360000
20
2.590000
0
SEQEND
8
0
0
POLYLINE
8
0
66
1
40
0.010000
41
0.010000
0
VERTEX
8
0
10
2.500000
20
2.550000
0
VERTEX
8
0
10
2.500000
20
2.620000
0
SEQEND
8
0
0
POLYLINE
8
0
66
1
40
0.010000
41
0.010000
0
VERTEX
8
0
10
2.600000
20
2.530000
0
VERTEX
8
0
10
2.640000
20
2.590000
0
SEQEND
8
0
0
POLYLINE
8
0
66
1
40
0.010000
41
0.010000
0
VERTEX
8
0
10
2.700000
20
2.450000
0
VERTEX
8
0
10
2.760000
20
2.490000
0
SEQEND
8
0
0
POLYLINE
8
0
66
1
40
0.016000
41
0.016000
0
VERTEX
8
0
10
2.200000
20
2.300000
0
VERTEX
8
0
10
2.300000
20
2.300000
0
SEQEND
8
0
0
POLYLINE
8
0
66
1
40
0.016000
41
0.016000
0
VERTEX
8
0
10
2.800000
20
2.300000
0
VERTEX
8
0
10
2.700000
20
2.300000
0
SEQEND
8
0
0
TEXT
8
0
10
2.235000
20
2.640000
40
0.120000
41
0.666667
1
L1
0
TEXT
8
0
10
2.235000
20
2.002000
40
0.080000
41
1.000000
1
12V
0
CIRCLE
8
0
10
4.400000
20
0.100000
40
0.200000
0
POLYLINE
8
0
66
1
40
0.010000
41
0.010000
0
VERTEX
8
0
10
4.450000
20
0.190000
0
VERTEX
8
0
10
4.461172
20
0.185723
0
VERTEX
8
0
10
4.471875
20
0.180156
0
VERTEX
8
0
10
4.481641
20
0.172949
0
VERTEX
8
0
10
4.490000
20
0.163750
0
VERTEX
8
0
10
4.496484
20
0.152207
0
VERTEX
8
0
10
4.500625
20
0.137969
0
VERTEX
8
0
10
4.501953
20
0.120683
0
VERTEX
8
0
10
4.500000
20
0.100000
0
SEQEND
8
0
0
POLYLINE
8
0
66
1
40
0.010000
41
0.010000
0
VERTEX
8
0
10
4.400000
20
0.090000
0
VERTEX
8
0
10
4.407031
20
0.090879
0
VERTEX
8
0
10
4.413125
20
0.093281
0
VERTEX
8
0
10
4.422500
20
0.101250
0
VERTEX
8
0
10
4.428125
20
0.111094
0
VERTEX
8
0
10
4.430000
20
0.120000
0
SEQEND
8
0
0
POLYLINE
8
0
66
1
40
0.010000
41
0.010000
0
VERTEX
8
0
10
4.350000
20
0.190000
0
VERTEX
8
0
10
4.369587
20
0.187813
0
VERTEX
8
0
10
4.386230
20
0.181875
0
VERTEX
8
0
10
4.400032
20
0.173125
0
VERTEX
8
0
10
4.411094
20
0.162500
0
VERTEX
8
0
10
4.419519
20
0.150937
0
VERTEX
8
0
10
4.425410
20
0.139375
0
VERTEX
8
0
10
4.428870
20
0.128750
0
VERTEX
8
0
10
4.430000
20
0.120000
0
SEQEND
8
0
0
POLYLINE
8
0
66
1
40
0.010000
41
0.010000
0
VERTEX
8
0
10
4.350000
20
0.190000
0
VERTEX
8
0
10
4.338828
20
0.185723
0
VERTEX
8
0
10
4.328125
20
0.180156
0
VERTEX
8
0
10
4.318359
20
0.172949
0
VERTEX
8
0
10
4.310000
20
0.163750
0
VERTEX
8
0
10
4.303516
20
0.152207
0
VERTEX
8
0
10
4.299375
20
0.137969
0
VERTEX
8
0
10
4.298047
20
0.120683
0
VERTEX
8
0
10
4.300000
20
0.100000
0
SEQEND
8
0
0
POLYLINE
8
0
66
1
40
0.010000
41
0.010000
0
VERTEX
8
0
10
4.400000
20
0.090000
0
VERTEX
8
0
10
4.392969
20
0.090879
0
VERTEX
8
0
10
4.386875
20
0.093281
0
VERTEX
8
0
10
4.377500
20
0.101250
0
VERTEX
8
0
10
4.371875
20
0.111094
0
VERTEX
8
0
10
4.370000
20
0.120000
0
SEQEND
8
0
0
POLYLINE
8
0
66
1
40
0.010000
41
0.010000
0
VERTEX
8
0
10
4.200000
20
0.100000
0
VERTEX
8
0
10
4.300000
20
0.100000
0
SEQEND
8
0
0
POLYLINE
8
0
66
1
40
0.010000
41
0.010000
0
VERTEX
8
0
10
4.500000
20
0.100000
0
VERTEX
8
0
10
4.600000
20
0.100000
0
SEQEND
8
0
0
POLYLINE
8
0
66
1
40
0.010000
41
0.010000
0
VERTEX
8
0
10
4.450000
20
0.190000
0
VERTEX
8
0
10
4.430413
20
0.187813
0
VERTEX
8
0
10
4.413770
20
0.181875
0
VERTEX
8
0
10
4.399968
20
0.173125
0
VERTEX
8
0
10
4.388906
20
0.162500
0
VERTEX
8
0
10
4.380481
20
0.150937
0
VERTEX
8
0
10
4.374590
20
0.139375
0
VERTEX
8
0
10
4.371130
20
0.128750
0
VERTEX
8
0
10
4.370000
20
0.120000
0
SEQEND
8
0
0
POLYLINE
8
0
66
1
40
0.010000
41
0.010000
0
VERTEX
8
0
10
4.200000
20
0.250000
0
VERTEX
8
0
10
4.140000
20
0.290000
0
SEQEND
8
0
0
POLYLINE
8
0
66
1
40
0.010000
41
0.010000
0
VERTEX
8
0
10
4.300000
20
0.330000
0
VERTEX
8
0
10
4.260000
20
0.390000
0
SEQEND
8
0
0
POLYLINE
8
0
66
1
40
0.010000
41
0.010000
0
VERTEX
8
0
10
4.400000
20
0.350000
0
VERTEX
8
0
10
4.400000
20
0.420000
0
SEQEND
8
0
0
POLYLINE
8
0
66
1
40
0.010000
41
0.010000
0
VERTEX
8
0
10
4.500000
20
0.330000
0
VERTEX
8
0
10
4.540000
20
0.390000
0
SEQEND
8
0
0
POLYLINE
8
0
66
1
40
0.010000
41
0.010000
0
VERTEX
8
0
10
4.600000
20
0.250000
0
VERTEX
8
0
10
4.660000
20
0.290000
0
SEQEND
8
0
0
POLYLINE
8
0
66
1
40
0.016000
41
0.016000
0
VERTEX
8
0
10
4.100000
20
0.100000
0
VERTEX
8
0
10
4.200000
20
0.100000
0
SEQEND
8
0
0
POLYLINE
8
0
66
1
40
0.016000
41
0.016000
0
VERTEX
8
0
10
4.700000
20
0.100000
0
VERTEX
8
0
10
4.600000
20
0.100000
0
SEQEND
8
0
0
TEXT
8
0
10
4.135000
20
0.440000
40
0.120000
41
0.666667
1
L2
0
TEXT
8
0
10
4.135000
20
-0.198000
40
0.080000
41
1.000000
1
12V
0
POLYLINE
8
0
66
1
40
0.020000
41
0.020000
0
VERTEX
8
0
10
-0.090000
20
2.480000
0
VERTEX
8
0
10
-0.010000
20
2.190000
0
SEQEND
8
0
0
CIRCLE
8
0
10
-0.100000
20
2.510000
40
0.020000
0
CIRCLE
8
0
10
0.000000
20
2.170000
40
0.020000
0
POLYLINE
8
0
66
1
40
0.016000
41
0.016000
0
VERTEX
8
0
10
0.000000
20
2.150000
0
VERTEX
8
0
10
0.000000
20
2.100000
0
SEQEND
8
0
0
CIRCLE
8
0
10
-0.200000
20
2.170000
40
0.020000
0
POLYLINE
8
0
66
1
40
0.016000
41
0.016000
0
VERTEX
8
0
10
-0.200000
20
2.150000
0
VERTEX
8
0
10
-0.200000
20
2.100000
0
SEQEND
8
0
0
POLYLINE
8
0
66
1
40
0.016000
41
0.016000
0
VERTEX
8
0
10
-0.100000
20
2.600000
0
VERTEX
8
0
10
-0.100000
20
2.530000
0
SEQEND
8
0
0
POLYLINE
8
0
66
1
40
0.016000
41
0.016000
0
VERTEX
8
0
10
-0.400000
20
2.250000
0
VERTEX
8
0
10
-0.402246
20
2.239238
0
VERTEX
8
0
10
-0.408594
20
2.229531
0
VERTEX
8
0
10
-0.418457
20
2.220996
0
VERTEX
8
0
10
-0.431250
20
2.213750
0
VERTEX
8
0
10
-0.446387
20
2.207910
0
VERTEX
8
0
10
-0.463281
20
2.203594
0
VERTEX
8
0
10
-0.481348
20
2.200918
0
VERTEX
8
0
10
-0.500000
20
2.200000
0
SEQEND
8
0
0
POLYLINE
8
0
66
1
40
0.016000
41
0.016000
0
VERTEX
8
0
10
-0.400000
20
2.250000
0
VERTEX
8
0
10
-0.402246
20
2.257891
0
VERTEX
8
0
10
-0.408594
20
2.266250
0
VERTEX
8
0
10
-0.418457
20
2.274609
0
VERTEX
8
0
10
-0.431250
20
2.282500
0
VERTEX
8
0
10
-0.446387
20
2.289453
0
VERTEX
8
0
10
-0.463281
20
2.295000
0
VERTEX
8
0
10
-0.481348
20
2.298672
0
VERTEX
8
0
10
-0.500000
20
2.300000
0
SEQEND
8
0
0
POLYLINE
8
0
66
1
40
0.016000
41
0.016000
0
VERTEX
8
0
10
-0.400000
20
2.350000
0
VERTEX
8
0
10
-0.402246
20
2.339238
0
VERTEX
8
0
10
-0.408594
20
2.329531
0
VERTEX
8
0
10
-0.418457
20
2.320996
0
VERTEX
8
0
10
-0.431250
20
2.313750
0
VERTEX
8
0
10
-0.446387
20
2.307910
0
VERTEX
8
0
10
-0.463281
20
2.303594
0
VERTEX
8
0
10
-0.481348
20
2.300918
0
VERTEX
8
0
10
-0.500000
20
2.300000
0
SEQEND
8
0
0
POLYLINE
8
0
66
1
40
0.016000
41
0.016000
0
VERTEX
8
0
10
-0.400000
20
2.350000
0
VERTEX
8
0
10
-0.402246
20
2.357891
0
VERTEX
8
0
10
-0.408594
20
2.366250
0
VERTEX
8
0
10
-0.418457
20
2.374609
0
VERTEX
8
0
10
-0.431250
20
2.382500
0
VERTEX
8
0
10
-0.446387
20
2.389453
0
VERTEX
8
0
10
-0.463281
20
2.395000
0
VERTEX
8
0
10
-0.481348
20
2.398672
0
VERTEX
8
0
10
-0.500000
20
2.400000
0
SEQEND
8
0
0
POLYLINE
8
0
66
1
40
0.016000
41
0.016000
0
VERTEX
8
0
10
-0.400000
20
2.450000
0
VERTEX
8
0
10
-0.402246
20
2.439238
0
VERTEX
8
0
10
-0.408594
20
2.429531
0
VERTEX
8
0
10
-0.418457
20
2.420996
0
VERTEX
8
0
10
-0.431250
20
2.413750
0
VERTEX
8
0
10
-0.446387
20
2.407910
0
VERTEX
8
0
10
-0.463281
20
2.403594
0
VERTEX
8
0
10
-0.481348
20
2.400918
0
VERTEX
8
0
10
-0.500000
20
2.400000
0
SEQEND
8
0
0
POLYLINE
8
0
66
1
40
0.016000
41
0.016000
0
VERTEX
8
0
10
-0.400000
20
2.450000
0
VERTEX
8
0
10
-0.402246
20
2.457891
0
VERTEX
8
0
10
-0.408594
20
2.466250
0
VERTEX
8
0
10
-0.418457
20
2.474609
0
VERTEX
8
0
10
-0.431250
20
2.482500
0
VERTEX
8
0
10
-0.446387
20
2.489453
0
VERTEX
8
0
10
-0.463281
20
2.495000
0
VERTEX
8
0
10
-0.481348
20
2.498672
0
VERTEX
8
0
10
-0.500000
20
2.500000
0
SEQEND
8
0
0
POLYLINE
8
0
66
1
40
0.016000
41
0.016000
0
VERTEX
8
0
10
-0.350000
20
2.150000
0
VERTEX
8
0
10
-0.350000
20
2.550000
0
SEQEND
8
0
0
POLYLINE
8
0
66
1
40
0.016000
41
0.016000
0
VERTEX
8
0
10
-0.300000
20
2.150000
0
VERTEX
8
0
10
-0.300000
20
2.550000
0
SEQEND
8
0
0
POLYLINE
8
0
66
1
40
0.016000
41
0.016000
0
VERTEX
8
0
10
-0.100000
20
2.700000
0
VERTEX
8
0
10
-0.100000
20
2.600000
0
SEQEND
8
0
0
POLYLINE
8
0
66
1
40
0.016000
41
0.016000
0
VERTEX
8
0
10
0.000000
20
2.000000
0
VERTEX
8
0
10
0.000000
20
2.100000
0
SEQEND
8
0
0
POLYLINE
8
0
66
1
40
0.016000
41
0.016000
0
VERTEX
8
0
10
-0.200000
20
2.000000
0
VERTEX
8
0
10
-0.200000
20
2.100000
0
SEQEND
8
0
0
POLYLINE
8
0
66
1
40
0.016000
41
0.016000
0
VERTEX
8
0
10
-0.600000
20
2.200000
0
VERTEX
8
0
10
-0.500000
20
2.200000
0
SEQEND
8
0
0
POLYLINE
8
0
66
1
40
0.016000
41
0.016000
0
VERTEX
8
0
10
-0.600000
20
2.500000
0
VERTEX
8
0
10
-0.500000
20
2.500000
0
SEQEND
8
0
0
TEXT
8
0
10
0.078000
20
2.473000
40
0.120000
41
0.666667
1
RL1
0
TEXT
8
0
10
0.078000
20
2.368000
40
0.080000
41
1.000000
1
12V
0
CIRCLE
8
0
10
0.900000
20
2.460000
40
0.020000
0
POLYLINE
8
0
66
1
40
0.016000
41
0.016000
0
VERTEX
8
0
10
0.900000
20
2.500000
0
VERTEX
8
0
10
0.900000
20
2.480000
0
SEQEND
8
0
0
CIRCLE
8
0
10
1.000000
20
2.270000
40
0.020000
0
POLYLINE
8
0
66
1
40
0.016000
41
0.016000
0
VERTEX
8
0
10
1.000000
20
2.250000
0
VERTEX
8
0
10
1.000000
20
2.200000
0
SEQEND
8
0
0
POLYLINE
8
0
66
1
40
0.016000
41
0.016000
0
VERTEX
8
0
10
0.910000
20
2.440000
0
VERTEX
8
0
10
0.990000
20
2.290000
0
SEQEND
8
0
0
CIRCLE
8
0
10
0.800000
20
2.270000
40
0.020000
0
POLYLINE
8
0
66
1
40
0.016000
41
0.016000
0
VERTEX
8
0
10
0.800000
20
2.250000
0
VERTEX
8
0
10
0.800000
20
2.200000
0
SEQEND
8
0
0
POLYLINE
8
0
66
1
40
0.016000
41
0.016000
0
VERTEX
8
0
10
0.900000
20
2.600000
0
VERTEX
8
0
10
0.900000
20
2.500000
0
SEQEND
8
0
0
POLYLINE
8
0
66
1
40
0.016000
41
0.016000
0
VERTEX
8
0
10
1.000000
20
2.100000
0
VERTEX
8
0
10
1.000000
20
2.200000
0
SEQEND
8
0
0
POLYLINE
8
0
66
1
40
0.016000
41
0.016000
0
VERTEX
8
0
10
0.800000
20
2.100000
0
VERTEX
8
0
10
0.800000
20
2.200000
0
SEQEND
8
0
0
CIRCLE
8
0
10
0.850000
20
2.180000
40
0.040000
0
POLYLINE
8
0
66
1
40
0.008000
41
0.008000
0
VERTEX
8
0
10
0.830000
20
2.180000
0
VERTEX
8
0
10
0.840000
20
2.190000
0
SEQEND
8
0
0
POLYLINE
8
0
66
1
40
0.008000
41
0.008000
0
VERTEX
8
0
10
0.830000
20
2.180000
0
VERTEX
8
0
10
0.840000
20
2.170000
0
SEQEND
8
0
0
POLYLINE
8
0
66
1
40
0.008000
41
0.008000
0
VERTEX
8
0
10
0.830000
20
2.180000
0
VERTEX
8
0
10
0.870000
20
2.180000
0
SEQEND
8
0
0
CIRCLE
8
0
10
0.950000
20
2.180000
40
0.040000
0
POLYLINE
8
0
66
1
40
0.008000
41
0.008000
0
VERTEX
8
0
10
0.970000
20
2.180000
0
VERTEX
8
0
10
0.960000
20
2.190000
0
SEQEND
8
0
0
POLYLINE
8
0
66
1
40
0.008000
41
0.008000
0
VERTEX
8
0
10
0.970000
20
2.180000
0
VERTEX
8
0
10
0.960000
20
2.170000
0
SEQEND
8
0
0
POLYLINE
8
0
66
1
40
0.008000
41
0.008000
0
VERTEX
8
0
10
0.970000
20
2.180000
0
VERTEX
8
0
10
0.930000
20
2.180000
0
SEQEND
8
0
0
TEXT
8
0
10
1.078000
20
2.373000
40
0.120000
41
0.666667
1
SW1
0
TEXT
8
0
10
1.078000
20
2.268000
40
0.080000
41
1.000000
1
SW-SPDT
0
CIRCLE
8
0
10
3.300000
20
0.160000
40
0.020000
0
POLYLINE
8
0
66
1
40
0.016000
41
0.016000
0
VERTEX
8
0
10
3.300000
20
0.200000
0
VERTEX
8
0
10
3.300000
20
0.180000
0
SEQEND
8
0
0
CIRCLE
8
0
10
3.400000
20
-0.030000
40
0.020000
0
POLYLINE
8
0
66
1
40
0.016000
41
0.016000
0
VERTEX
8
0
10
3.400000
20
-0.050000
0
VERTEX
8
0
10
3.400000
20
-0.100000
0
SEQEND
8
0
0
POLYLINE
8
0
66
1
40
0.016000
41
0.016000
0
VERTEX
8
0
10
3.310000
20
0.140000
0
VERTEX
8
0
10
3.390000
20
-0.010000
0
SEQEND
8
0
0
CIRCLE
8
0
10
3.200000
20
-0.030000
40
0.020000
0
POLYLINE
8
0
66
1
40
0.016000
41
0.016000
0
VERTEX
8
0
10
3.200000
20
-0.050000
0
VERTEX
8
0
10
3.200000
20
-0.100000
0
SEQEND
8
0
0
POLYLINE
8
0
66
1
40
0.016000
41
0.016000
0
VERTEX
8
0
10
3.300000
20
0.300000
0
VERTEX
8
0
10
3.300000
20
0.200000
0
SEQEND
8
0
0
POLYLINE
8
0
66
1
40
0.016000
41
0.016000
0
VERTEX
8
0
10
3.400000
20
-0.200000
0
VERTEX
8
0
10
3.400000
20
-0.100000
0
SEQEND
8
0
0
POLYLINE
8
0
66
1
40
0.016000
41
0.016000
0
VERTEX
8
0
10
3.200000
20
-0.200000
0
VERTEX
8
0
10
3.200000
20
-0.100000
0
SEQEND
8
0
0
CIRCLE
8
0
10
3.250000
20
-0.120000
40
0.040000
0
POLYLINE
8
0
66
1
40
0.008000
41
0.008000
0
VERTEX
8
0
10
3.230000
20
-0.120000
0
VERTEX
8
0
10
3.240000
20
-0.110000
0
SEQEND
8
0
0
POLYLINE
8
0
66
1
40
0.008000
41
0.008000
0
VERTEX
8
0
10
3.230000
20
-0.120000
0
VERTEX
8
0
10
3.240000
20
-0.130000
0
SEQEND
8
0
0
POLYLINE
8
0
66
1
40
0.008000
41
0.008000
0
VERTEX
8
0
10
3.230000
20
-0.120000
0
VERTEX
8
0
10
3.270000
20
-0.120000
0
SEQEND
8
0
0
CIRCLE
8
0
10
3.350000
20
-0.120000
40
0.040000
0
POLYLINE
8
0
66
1
40
0.008000
41
0.008000
0
VERTEX
8
0
10
3.370000
20
-0.120000
0
VERTEX
8
0
10
3.360000
20
-0.110000
0
SEQEND
8
0
0
POLYLINE
8
0
66
1
40
0.008000
41
0.008000
0
VERTEX
8
0
10
3.370000
20
-0.120000
0
VERTEX
8
0
10
3.360000
20
-0.130000
0
SEQEND
8
0
0
POLYLINE
8
0
66
1
40
0.008000
41
0.008000
0
VERTEX
8
0
10
3.370000
20
-0.120000
0
VERTEX
8
0
10
3.330000
20
-0.120000
0
SEQEND
8
0
0
TEXT
8
0
10
3.478000
20
0.073000
40
0.120000
41
0.666667
1
SW2
0
TEXT
8
0
10
3.478000
20
-0.032000
40
0.080000
41
1.000000
1
SW-SPDT
0
POLYLINE
8
0
66
1
40
0.020000
41
0.020000
0
VERTEX
8
0
10
2.210000
20
0.180000
0
VERTEX
8
0
10
2.290000
20
-0.110000
0
SEQEND
8
0
0
CIRCLE
8
0
10
2.200000
20
0.210000
40
0.020000
0
CIRCLE
8
0
10
2.300000
20
-0.130000
40
0.020000
0
POLYLINE
8
0
66
1
40
0.016000
41
0.016000
0
VERTEX
8
0
10
2.300000
20
-0.150000
0
VERTEX
8
0
10
2.300000
20
-0.200000
0
SEQEND
8
0
0
CIRCLE
8
0
10
2.100000
20
-0.130000
40
0.020000
0
POLYLINE
8
0
66
1
40
0.016000
41
0.016000
0
VERTEX
8
0
10
2.100000
20
-0.150000
0
VERTEX
8
0
10
2.100000
20
-0.200000
0
SEQEND
8
0
0
POLYLINE
8
0
66
1
40
0.016000
41
0.016000
0
VERTEX
8
0
10
2.200000
20
0.300000
0
VERTEX
8
0
10
2.200000
20
0.230000
0
SEQEND
8
0
0
POLYLINE
8
0
66
1
40
0.016000
41
0.016000
0
VERTEX
8
0
10
1.900000
20
-0.050000
0
VERTEX
8
0
10
1.897754
20
-0.060762
0
VERTEX
8
0
10
1.891406
20
-0.070469
0
VERTEX
8
0
10
1.881543
20
-0.079004
0
VERTEX
8
0
10
1.868750
20
-0.086250
0
VERTEX
8
0
10
1.853613
20
-0.092090
0
VERTEX
8
0
10
1.836719
20
-0.096406
0
VERTEX
8
0
10
1.818652
20
-0.099082
0
VERTEX
8
0
10
1.800000
20
-0.100000
0
SEQEND
8
0
0
POLYLINE
8
0
66
1
40
0.016000
41
0.016000
0
VERTEX
8
0
10
1.900000
20
-0.050000
0
VERTEX
8
0
10
1.897754
20
-0.042109
0
VERTEX
8
0
10
1.891406
20
-0.033750
0
VERTEX
8
0
10
1.881543
20
-0.025391
0
VERTEX
8
0
10
1.868750
20
-0.017500
0
VERTEX
8
0
10
1.853613
20
-0.010547
0
VERTEX
8
0
10
1.836719
20
-0.005000
0
VERTEX
8
0
10
1.818652
20
-0.001328
0
VERTEX
8
0
10
1.800000
20
0.000000
0
SEQEND
8
0
0
POLYLINE
8
0
66
1
40
0.016000
41
0.016000
0
VERTEX
8
0
10
1.900000
20
0.050000
0
VERTEX
8
0
10
1.897754
20
0.039238
0
VERTEX
8
0
10
1.891406
20
0.029531
0
VERTEX
8
0
10
1.881543
20
0.020996
0
VERTEX
8
0
10
1.868750
20
0.013750
0
VERTEX
8
0
10
1.853613
20
0.007910
0
VERTEX
8
0
10
1.836719
20
0.003594
0
VERTEX
8
0
10
1.818652
20
0.000918
0
VERTEX
8
0
10
1.800000
20
0.000000
0
SEQEND
8
0
0
POLYLINE
8
0
66
1
40
0.016000
41
0.016000
0
VERTEX
8
0
10
1.900000
20
0.050000
0
VERTEX
8
0
10
1.897754
20
0.057891
0
VERTEX
8
0
10
1.891406
20
0.066250
0
VERTEX
8
0
10
1.881543
20
0.074609
0
VERTEX
8
0
10
1.868750
20
0.082500
0
VERTEX
8
0
10
1.853613
20
0.089453
0
VERTEX
8
0
10
1.836719
20
0.095000
0
VERTEX
8
0
10
1.818652
20
0.098672
0
VERTEX
8
0
10
1.800000
20
0.100000
0
SEQEND
8
0
0
POLYLINE
8
0
66
1
40
0.016000
41
0.016000
0
VERTEX
8
0
10
1.900000
20
0.150000
0
VERTEX
8
0
10
1.897754
20
0.139238
0
VERTEX
8
0
10
1.891406
20
0.129531
0
VERTEX
8
0
10
1.881543
20
0.120996
0
VERTEX
8
0
10
1.868750
20
0.113750
0
VERTEX
8
0
10
1.853613
20
0.107910
0
VERTEX
8
0
10
1.836719
20
0.103594
0
VERTEX
8
0
10
1.818652
20
0.100918
0
VERTEX
8
0
10
1.800000
20
0.100000
0
SEQEND
8
0
0
POLYLINE
8
0
66
1
40
0.016000
41
0.016000
0
VERTEX
8
0
10
1.900000
20
0.150000
0
VERTEX
8
0
10
1.897754
20
0.157891
0
VERTEX
8
0
10
1.891406
20
0.166250
0
VERTEX
8
0
10
1.881543
20
0.174609
0
VERTEX
8
0
10
1.868750
20
0.182500
0
VERTEX
8
0
10
1.853613
20
0.189453
0
VERTEX
8
0
10
1.836719
20
0.195000
0
VERTEX
8
0
10
1.818652
20
0.198672
0
VERTEX
8
0
10
1.800000
20
0.200000
0
SEQEND
8
0
0
POLYLINE
8
0
66
1
40
0.016000
41
0.016000
0
VERTEX
8
0
10
1.950000
20
-0.150000
0
VERTEX
8
0
10
1.950000
20
0.250000
0
SEQEND
8
0
0
POLYLINE
8
0
66
1
40
0.016000
41
0.016000
0
VERTEX
8
0
10
2.000000
20
-0.150000
0
VERTEX
8
0
10
2.000000
20
0.250000
0
SEQEND
8
0
0
POLYLINE
8
0
66
1
40
0.016000
41
0.016000
0
VERTEX
8
0
10
2.200000
20
0.400000
0
VERTEX
8
0
10
2.200000
20
0.300000
0
SEQEND
8
0
0
POLYLINE
8
0
66
1
40
0.016000
41
0.016000
0
VERTEX
8
0
10
2.300000
20
-0.300000
0
VERTEX
8
0
10
2.300000
20
-0.200000
0
SEQEND
8
0
0
POLYLINE
8
0
66
1
40
0.016000
41
0.016000
0
VERTEX
8
0
10
2.100000
20
-0.300000
0
VERTEX
8
0
10
2.100000
20
-0.200000
0
SEQEND
8
0
0
POLYLINE
8
0
66
1
40
0.016000
41
0.016000
0
VERTEX
8
0
10
1.700000
20
-0.100000
0
VERTEX
8
0
10
1.800000
20
-0.100000
0
SEQEND
8
0
0
POLYLINE
8
0
66
1
40
0.016000
41
0.016000
0
VERTEX
8
0
10
1.700000
20
0.200000
0
VERTEX
8
0
10
1.800000
20
0.200000
0
SEQEND
8
0
0
TEXT
8
0
10
2.378000
20
0.173000
40
0.120000
41
0.666667
1
RL2
0
TEXT
8
0
10
2.378000
20
0.068000
40
0.080000
41
1.000000
1
12V
0
POLYLINE
8
0
66
1
40
0.016000
41
0.016000
0
VERTEX
8
0
10
-1.000000
20
2.300000
0
VERTEX
8
0
10
-1.200000
20
2.300000
0
VERTEX
8
0
10
-1.100000
20
2.400000
0
VERTEX
8
0
10
-1.000000
20
2.300000
0
SEQEND
8
0
0
POLYLINE
8
0
66
1
40
0.016000
41
0.016000
0
VERTEX
8
0
10
-1.000000
20
2.400000
0
VERTEX
8
0
10
-1.200000
20
2.400000
0
SEQEND
8
0
0
POLYLINE
8
0
66
1
40
0.016000
41
0.016000
0
VERTEX
8
0
10
-1.100000
20
2.200000
0
VERTEX
8
0
10
-1.100000
20
2.300000
0
SEQEND
8
0
0
POLYLINE
8
0
66
1
40
0.016000
41
0.016000
0
VERTEX
8
0
10
-1.100000
20
2.500000
0
VERTEX
8
0
10
-1.100000
20
2.400000
0
SEQEND
8
0
0
TEXT
8
0
10
-0.942000
20
2.273000
40
0.120000
41
0.666667
1
D1
0
TEXT
8
0
10
-0.942000
20
2.168000
40
0.080000
41
1.000000
1
DIODE
0
POLYLINE
8
0
66
1
40
0.016000
41
0.016000
0
VERTEX
8
0
10
1.000000
20
0.000000
0
VERTEX
8
0
10
1.200000
20
0.000000
0
VERTEX
8
0
10
1.100000
20
0.100000
0
VERTEX
8
0
10
1.000000
20
0.000000
0
SEQEND
8
0
0
POLYLINE
8
0
66
1
40
0.016000
41
0.016000
0
VERTEX
8
0
10
1.000000
20
0.100000
0
VERTEX
8
0
10
1.200000
20
0.100000
0
SEQEND
8
0
0
POLYLINE
8
0
66
1
40
0.016000
41
0.016000
0
VERTEX
8
0
10
1.100000
20
-0.100000
0
VERTEX
8
0
10
1.100000
20
0.000000
0
SEQEND
8
0
0
POLYLINE
8
0
66
1
40
0.016000
41
0.016000
0
VERTEX
8
0
10
1.100000
20
0.200000
0
VERTEX
8
0
10
1.100000
20
0.100000
0
SEQEND
8
0
0
TEXT
8
0
10
1.258000
20
-0.027000
40
0.120000
41
0.666667
1
D2
0
TEXT
8
0
10
1.258000
20
-0.132000
40
0.080000
41
1.000000
1
DIODE
0
POLYLINE
8
0
66
1
40
0.016000
41
0.016000
0
VERTEX
8
0
10
-2.540000
20
3.200000
0
VERTEX
8
0
10
-2.460000
20
3.200000
0
VERTEX
8
0
10
-2.500000
20
3.100000
0
VERTEX
8
0
10
-2.540000
20
3.200000
0
SEQEND
8
0
0
POLYLINE
8
0
66
1
40
0.016000
41
0.016000
0
VERTEX
8
0
10
-2.500000
20
3.100000
0
VERTEX
8
0
10
-2.500000
20
3.000000
0
SEQEND
8
0
0
TEXT
8
0
10
-2.460000
20
3.250000
40
0.080000
41
1.000000
50
90.000000
1
12V
0
CIRCLE
8
0
10
-1.100000
20
2.600000
40
0.020000
0
POLYLINE
8
0
66
1
40
0.016000
41
0.016000
0
VERTEX
8
0
10
-1.100000
20
1.200000
0
VERTEX
8
0
10
-1.200000
20
1.250000
0
VERTEX
8
0
10
-1.150000
20
1.300000
0
VERTEX
8
0
10
-1.100000
20
1.200000
0
SEQEND
8
0
0
POLYLINE
8
0
66
1
40
0.016000
41
0.016000
0
VERTEX
8
0
10
-1.300000
20
1.250000
0
VERTEX
8
0
10
-1.250000
20
1.250000
0
VERTEX
8
0
10
-1.250000
20
1.550000
0
VERTEX
8
0
10
-1.300000
20
1.550000
0
VERTEX
8
0
10
-1.300000
20
1.250000
0
SEQEND
8
0
0
POLYLINE
8
0
66
1
40
0.016000
41
0.016000
0
VERTEX
8
0
10
-1.250000
20
1.450000
0
VERTEX
8
0
10
-1.100000
20
1.600000
0
SEQEND
8
0
0
POLYLINE
8
0
66
1
40
0.016000
41
0.016000
0
VERTEX
8
0
10
-1.250000
20
1.350000
0
VERTEX
8
0
10
-1.180000
20
1.280000
0
SEQEND
8
0
0
POLYLINE
8
0
66
1
40
0.016000
41
0.016000
0
VERTEX
8
0
10
-1.400000
20
1.400000
0
VERTEX
8
0
10
-1.300000
20
1.400000
0
SEQEND
8
0
0
POLYLINE
8
0
66
1
40
0.016000
41
0.016000
0
VERTEX
8
0
10
-1.100000
20
1.700000
0
VERTEX
8
0
10
-1.100000
20
1.600000
0
SEQEND
8
0
0
POLYLINE
8
0
66
1
40
0.016000
41
0.016000
0
VERTEX
8
0
10
-1.100000
20
1.100000
0
VERTEX
8
0
10
-1.100000
20
1.200000
0
SEQEND
8
0
0
TEXT
8
0
10
-1.042000
20
1.473000
40
0.120000
41
0.666667
1
Q1
0
TEXT
8
0
10
-1.042000
20
1.368000
40
0.080000
41
1.000000
1
BC547
0
POLYLINE
8
0
66
1
40
0.016000
41
0.016000
0
VERTEX
8
0
10
1.100000
20
-1.100000
0
VERTEX
8
0
10
1.000000
20
-1.050000
0
VERTEX
8
0
10
1.050000
20
-1.000000
0
VERTEX
8
0
10
1.100000
20
-1.100000
0
SEQEND
8
0
0
POLYLINE
8
0
66
1
40
0.016000
41
0.016000
0
VERTEX
8
0
10
0.900000
20
-1.050000
0
VERTEX
8
0
10
0.950000
20
-1.050000
0
VERTEX
8
0
10
0.950000
20
-0.750000
0
VERTEX
8
0
10
0.900000
20
-0.750000
0
VERTEX
8
0
10
0.900000
20
-1.050000
0
SEQEND
8
0
0
POLYLINE
8
0
66
1
40
0.016000
41
0.016000
0
VERTEX
8
0
10
0.950000
20
-0.850000
0
VERTEX
8
0
10
1.100000
20
-0.700000
0
SEQEND
8
0
0
POLYLINE
8
0
66
1
40
0.016000
41
0.016000
0
VERTEX
8
0
10
0.950000
20
-0.950000
0
VERTEX
8
0
10
1.020000
20
-1.020000
0
SEQEND
8
0
0
POLYLINE
8
0
66
1
40
0.016000
41
0.016000
0
VERTEX
8
0
10
0.800000
20
-0.900000
0
VERTEX
8
0
10
0.900000
20
-0.900000
0
SEQEND
8
0
0
POLYLINE
8
0
66
1
40
0.016000
41
0.016000
0
VERTEX
8
0
10
1.100000
20
-0.600000
0
VERTEX
8
0
10
1.100000
20
-0.700000
0
SEQEND
8
0
0
POLYLINE
8
0
66
1
40
0.016000
41
0.016000
0
VERTEX
8
0
10
1.100000
20
-1.200000
0
VERTEX
8
0
10
1.100000
20
-1.100000
0
SEQEND
8
0
0
TEXT
8
0
10
1.158000
20
-0.827000
40
0.120000
41
0.666667
1
Q2
0
TEXT
8
0
10
1.158000
20
-0.932000
40
0.080000
41
1.000000
1
BC547
0
CIRCLE
8
0
10
-1.000000
20
2.200000
40
0.020000
0
CIRCLE
8
0
10
1.200000
20
-0.200000
40
0.020000
0
POLYLINE
8
0
66
1
40
0.016000
41
0.016000
0
VERTEX
8
0
10
-2.200000
20
1.360000
0
VERTEX
8
0
10
-1.900000
20
1.360000
0
VERTEX
8
0
10
-1.900000
20
1.440000
0
VERTEX
8
0
10
-2.200000
20
1.440000
0
VERTEX
8
0
10
-2.200000
20
1.360000
0
SEQEND
8
0
0
POLYLINE
8
0
66
1
40
0.016000
41
0.016000
0
VERTEX
8
0
10
-2.300000
20
1.400000
0
VERTEX
8
0
10
-2.200000
20
1.400000
0
SEQEND
8
0
0
POLYLINE
8
0
66
1
40
0.016000
41
0.016000
0
VERTEX
8
0
10
-1.800000
20
1.400000
0
VERTEX
8
0
10
-1.900000
20
1.400000
0
SEQEND
8
0
0
TEXT
8
0
10
-2.208000
20
1.463000
40
0.120000
41
0.666667
1
R1
0
TEXT
8
0
10
-2.208000
20
1.262000
40
0.080000
41
1.000000
1
220
0
POLYLINE
8
0
66
1
40
0.016000
41
0.016000
0
VERTEX
8
0
10
-0.100000
20
-0.940000
0
VERTEX
8
0
10
0.200000
20
-0.940000
0
VERTEX
8
0
10
0.200000
20
-0.860000
0
VERTEX
8
0
10
-0.100000
20
-0.860000
0
VERTEX
8
0
10
-0.100000
20
-0.940000
0
SEQEND
8
0
0
POLYLINE
8
0
66
1
40
0.016000
41
0.016000
0
VERTEX
8
0
10
-0.200000
20
-0.900000
0
VERTEX
8
0
10
-0.100000
20
-0.900000
0
SEQEND
8
0
0
POLYLINE
8
0
66
1
40
0.016000
41
0.016000
0
VERTEX
8
0
10
0.300000
20
-0.900000
0
VERTEX
8
0
10
0.200000
20
-0.900000
0
SEQEND
8
0
0
TEXT
8
0
10
-0.108000
20
-0.837000
40
0.120000
41
0.666667
1
R2
0
TEXT
8
0
10
-0.108000
20
-1.038000
40
0.080000
41
1.000000
1
220
0
POLYLINE
8
0
66
1
40
0.016000
41
0.016000
0
VERTEX
8
0
10
0.200000
20
-1.700000
0
VERTEX
8
0
10
0.200000
20
-1.800000
0
SEQEND
8
0
0
POLYLINE
8
0
66
1
40
0.016000
41
0.016000
0
VERTEX
8
0
10
0.100000
20
-1.800000
0
VERTEX
8
0
10
0.300000
20
-1.800000
0
SEQEND
8
0
0
POLYLINE
8
0
66
1
40
0.016000
41
0.016000
0
VERTEX
8
0
10
0.150000
20
-1.850000
0
VERTEX
8
0
10
0.250000
20
-1.850000
0
SEQEND
8
0
0
POLYLINE
8
0
66
1
40
0.016000
41
0.016000
0
VERTEX
8
0
10
0.190000
20
-1.900000
0
VERTEX
8
0
10
0.210000
20
-1.900000
0
SEQEND
8
0
0
CIRCLE
8
0
10
0.300000
20
-1.400000
40
0.020000
0
POLYLINE
8
0
66
1
40
0.008000
41
0.008000
0
VERTEX
8
0
10
4.450000
20
2.650000
0
VERTEX
8
0
10
4.500000
20
2.750000
0
VERTEX
8
0
10
4.550000
20
2.700000
0
VERTEX
8
0
10
4.450000
20
2.650000
0
SEQEND
8
0
0
POLYLINE
8
0
66
1
40
0.008000
41
0.008000
0
VERTEX
8
0
10
4.490000
20
2.600000
0
VERTEX
8
0
10
4.497891
20
2.599082
0
VERTEX
8
0
10
4.506250
20
2.596406
0
VERTEX
8
0
10
4.514609
20
2.592090
0
VERTEX
8
0
10
4.522500
20
2.586250
0
VERTEX
8
0
10
4.529453
20
2.579004
0
VERTEX
8
0
10
4.535000
20
2.570469
0
VERTEX
8
0
10
4.538672
20
2.560762
0
VERTEX
8
0
10
4.540000
20
2.550000
0
SEQEND
8
0
0
POLYLINE
8
0
66
1
40
0.008000
41
0.008000
0
VERTEX
8
0
10
4.490000
20
2.500000
0
VERTEX
8
0
10
4.497891
20
2.501328
0
VERTEX
8
0
10
4.506250
20
2.505000
0
VERTEX
8
0
10
4.522500
20
2.517500
0
VERTEX
8
0
10
4.535000
20
2.533750
0
VERTEX
8
0
10
4.538672
20
2.542109
0
VERTEX
8
0
10
4.540000
20
2.550000
0
SEQEND
8
0
0
POLYLINE
8
0
66
1
40
0.008000
41
0.008000
0
VERTEX
8
0
10
4.490000
20
2.500000
0
VERTEX
8
0
10
4.479238
20
2.499082
0
VERTEX
8
0
10
4.469531
20
2.496406
0
VERTEX
8
0
10
4.460996
20
2.492090
0
VERTEX
8
0
10
4.453750
20
2.486250
0
VERTEX
8
0
10
4.447910
20
2.479004
0
VERTEX
8
0
10
4.443594
20
2.470469
0
VERTEX
8
0
10
4.440918
20
2.460762
0
VERTEX
8
0
10
4.440000
20
2.450000
0
SEQEND
8
0
0
POLYLINE
8
0
66
1
40
0.008000
41
0.008000
0
VERTEX
8
0
10
4.490000
20
2.400000
0
VERTEX
8
0
10
4.479238
20
2.401328
0
VERTEX
8
0
10
4.469531
20
2.405000
0
VERTEX
8
0
10
4.460996
20
2.410547
0
VERTEX
8
0
10
4.453750
20
2.417500
0
VERTEX
8
0
10
4.447910
20
2.425391
0
VERTEX
8
0
10
4.443594
20
2.433750
0
VERTEX
8
0
10
4.440918
20
2.442109
0
VERTEX
8
0
10
4.440000
20
2.450000
0
SEQEND
8
0
0
POLYLINE
8
0
66
1
40
0.008000
41
0.008000
0
VERTEX
8
0
10
4.400000
20
2.600000
0
VERTEX
8
0
10
4.450000
20
2.650000
0
SEQEND
8
0
0
TEXT
8
0
10
4.590000
20
2.780000
40
0.080000
41
1.000000
50
90.000000
1
230v, 50hz
0
CIRCLE
8
0
10
4.600000
20
0.600000
40
0.020000
0
CIRCLE
8
0
10
4.400000
20
2.300000
40
0.020000
0
POLYLINE
8
0
66
1
40
0.016000
41
0.016000
0
VERTEX
8
0
10
-3.300000
20
-0.700000
0
VERTEX
8
0
10
-3.400000
20
-0.800000
0
VERTEX
8
0
10
-4.800000
20
-0.800000
0
VERTEX
8
0
10
-4.900000
20
-0.700000
0
VERTEX
8
0
10
-3.300000
20
-0.700000
0
SEQEND
8
0
0
POLYLINE
8
0
66
1
40
0.016000
41
0.016000
0
VERTEX
8
0
10
-5.000000
20
-0.700000
0
VERTEX
8
0
10
-2.800000
20
-0.700000
0
VERTEX
8
0
10
-2.800000
20
1.450000
0
VERTEX
8
0
10
-5.000000
20
1.450000
0
VERTEX
8
0
10
-5.000000
20
-0.700000
0
SEQEND
8
0
0
POLYLINE
8
0
66
1
40
0.016000
41
0.016000
0
VERTEX
8
0
10
-3.600000
20
1.150000
0
VERTEX
8
0
10
-3.100000
20
1.150000
0
VERTEX
8
0
10
-3.100000
20
1.750000
0
VERTEX
8
0
10
-3.600000
20
1.750000
0
VERTEX
8
0
10
-3.600000
20
1.150000
0
SEQEND
8
0
0
POLYLINE
8
0
66
1
40
0.016000
41
0.016000
0
VERTEX
8
0
10
-4.850000
20
1.000000
0
VERTEX
8
0
10
-4.500000
20
1.000000
0
VERTEX
8
0
10
-4.500000
20
1.600000
0
VERTEX
8
0
10
-4.850000
20
1.600000
0
VERTEX
8
0
10
-4.850000
20
1.000000
0
SEQEND
8
0
0
POLYLINE
8
0
66
1
40
0.016000
41
0.016000
0
VERTEX
8
0
10
-4.150000
20
-0.650000
0
VERTEX
8
0
10
-3.700000
20
-0.650000
0
VERTEX
8
0
10
-3.700000
20
0.800000
0
VERTEX
8
0
10
-4.150000
20
0.800000
0
VERTEX
8
0
10
-4.150000
20
-0.650000
0
SEQEND
8
0
0
POLYLINE
8
0
66
1
40
0.016000
41
0.016000
0
VERTEX
8
0
10
-3.550000
20
0.750000
0
VERTEX
8
0
10
-3.550000
20
-0.550000
0
SEQEND
8
0
0
TEXT
8
0
10
-3.498000
20
0.410000
40
0.096000
41
0.833333
50
-90.000000
1
DIGITAL (~PWM)
0
POLYLINE
8
0
66
1
40
0.016000
41
0.016000
0
VERTEX
8
0
10
-4.300000
20
-0.500000
0
VERTEX
8
0
10
-4.300000
20
-0.100000
0
SEQEND
8
0
0
TEXT
8
0
10
-4.498000
20
0.260000
40
0.096000
41
0.833333
50
-90.000000
1
ANALOG IN
0
TEXT
8
0
10
-3.872000
20
-0.470000
40
0.056000
41
1.428571
50
90.000000
1
ATMEGA328P-PU
0
TEXT
8
0
10
-3.922000
20
0.040000
40
0.056000
41
1.428571
50
90.000000
1
1121
0
POLYLINE
8
0
66
1
40
0.016000
41
0.016000
0
VERTEX
8
0
10
-3.700000
20
0.700000
0
VERTEX
8
0
10
-3.650000
20
0.700000
0
VERTEX
8
0
10
-3.650000
20
0.750000
0
VERTEX
8
0
10
-3.700000
20
0.750000
0
VERTEX
8
0
10
-3.700000
20
0.700000
0
SEQEND
8
0
0
POLYLINE
8
0
66
1
40
0.016000
41
0.016000
0
VERTEX
8
0
10
-3.700000
20
0.600000
0
VERTEX
8
0
10
-3.650000
20
0.600000
0
VERTEX
8
0
10
-3.650000
20
0.650000
0
VERTEX
8
0
10
-3.700000
20
0.650000
0
VERTEX
8
0
10
-3.700000
20
0.600000
0
SEQEND
8
0
0
POLYLINE
8
0
66
1
40
0.016000
41
0.016000
0
VERTEX
8
0
10
-3.700000
20
0.500000
0
VERTEX
8
0
10
-3.650000
20
0.500000
0
VERTEX
8
0
10
-3.650000
20
0.550000
0
VERTEX
8
0
10
-3.700000
20
0.550000
0
VERTEX
8
0
10
-3.700000
20
0.500000
0
SEQEND
8
0
0
POLYLINE
8
0
66
1
40
0.016000
41
0.016000
0
VERTEX
8
0
10
-3.700000
20
0.400000
0
VERTEX
8
0
10
-3.650000
20
0.400000
0
VERTEX
8
0
10
-3.650000
20
0.450000
0
VERTEX
8
0
10
-3.700000
20
0.450000
0
VERTEX
8
0
10
-3.700000
20
0.400000
0
SEQEND
8
0
0
POLYLINE
8
0
66
1
40
0.016000
41
0.016000
0
VERTEX
8
0
10
-3.700000
20
0.300000
0
VERTEX
8
0
10
-3.650000
20
0.300000
0
VERTEX
8
0
10
-3.650000
20
0.350000
0
VERTEX
8
0
10
-3.700000
20
0.350000
0
VERTEX
8
0
10
-3.700000
20
0.300000
0
SEQEND
8
0
0
POLYLINE
8
0
66
1
40
0.016000
41
0.016000
0
VERTEX
8
0
10
-3.700000
20
0.200000
0
VERTEX
8
0
10
-3.650000
20
0.200000
0
VERTEX
8
0
10
-3.650000
20
0.250000
0
VERTEX
8
0
10
-3.700000
20
0.250000
0
VERTEX
8
0
10
-3.700000
20
0.200000
0
SEQEND
8
0
0
POLYLINE
8
0
66
1
40
0.016000
41
0.016000
0
VERTEX
8
0
10
-3.700000
20
0.100000
0
VERTEX
8
0
10
-3.650000
20
0.100000
0
VERTEX
8
0
10
-3.650000
20
0.150000
0
VERTEX
8
0
10
-3.700000
20
0.150000
0
VERTEX
8
0
10
-3.700000
20
0.100000
0
SEQEND
8
0
0
POLYLINE
8
0
66
1
40
0.016000
41
0.016000
0
VERTEX
8
0
10
-3.700000
20
0.000000
0
VERTEX
8
0
10
-3.650000
20
0.000000
0
VERTEX
8
0
10
-3.650000
20
0.050000
0
VERTEX
8
0
10
-3.700000
20
0.050000
0
VERTEX
8
0
10
-3.700000
20
0.000000
0
SEQEND
8
0
0
POLYLINE
8
0
66
1
40
0.016000
41
0.016000
0
VERTEX
8
0
10
-3.700000
20
-0.100000
0
VERTEX
8
0
10
-3.650000
20
-0.100000
0
VERTEX
8
0
10
-3.650000
20
-0.050000
0
VERTEX
8
0
10
-3.700000
20
-0.050000
0
VERTEX
8
0
10
-3.700000
20
-0.100000
0
SEQEND
8
0
0
POLYLINE
8
0
66
1
40
0.016000
41
0.016000
0
VERTEX
8
0
10
-3.700000
20
-0.200000
0
VERTEX
8
0
10
-3.650000
20
-0.200000
0
VERTEX
8
0
10
-3.650000
20
-0.150000
0
VERTEX
8
0
10
-3.700000
20
-0.150000
0
VERTEX
8
0
10
-3.700000
20
-0.200000
0
SEQEND
8
0
0
POLYLINE
8
0
66
1
40
0.016000
41
0.016000
0
VERTEX
8
0
10
-3.700000
20
-0.300000
0
VERTEX
8
0
10
-3.650000
20
-0.300000
0
VERTEX
8
0
10
-3.650000
20
-0.250000
0
VERTEX
8
0
10
-3.700000
20
-0.250000
0
VERTEX
8
0
10
-3.700000
20
-0.300000
0
SEQEND
8
0
0
POLYLINE
8
0
66
1
40
0.016000
41
0.016000
0
VERTEX
8
0
10
-3.700000
20
-0.400000
0
VERTEX
8
0
10
-3.650000
20
-0.400000
0
VERTEX
8
0
10
-3.650000
20
-0.350000
0
VERTEX
8
0
10
-3.700000
20
-0.350000
0
VERTEX
8
0
10
-3.700000
20
-0.400000
0
SEQEND
8
0
0
POLYLINE
8
0
66
1
40
0.016000
41
0.016000
0
VERTEX
8
0
10
-3.700000
20
-0.500000
0
VERTEX
8
0
10
-3.650000
20
-0.500000
0
VERTEX
8
0
10
-3.650000
20
-0.450000
0
VERTEX
8
0
10
-3.700000
20
-0.450000
0
VERTEX
8
0
10
-3.700000
20
-0.500000
0
SEQEND
8
0
0
POLYLINE
8
0
66
1
40
0.016000
41
0.016000
0
VERTEX
8
0
10
-3.700000
20
-0.600000
0
VERTEX
8
0
10
-3.650000
20
-0.600000
0
VERTEX
8
0
10
-3.650000
20
-0.550000
0
VERTEX
8
0
10
-3.700000
20
-0.550000
0
VERTEX
8
0
10
-3.700000
20
-0.600000
0
SEQEND
8
0
0
TEXT
8
0
10
-3.540000
20
0.556000
40
0.088000
41
0.909091
1
~
0
TEXT
8
0
10
-3.490000
20
0.456000
40
0.088000
41
0.909091
1
~
0
TEXT
8
0
10
-3.340000
20
0.356000
40
0.088000
41
0.909091
1
~
0
TEXT
8
0
10
-3.290000
20
-0.044000
40
0.088000
41
0.909091
1
~
0
TEXT
8
0
10
-3.340000
20
-0.144000
40
0.088000
41
0.909091
1
~
0
TEXT
8
0
10
-3.290000
20
-0.344000
40
0.088000
41
0.909091
1
~
0
TEXT
8
0
10
-4.386000
20
2.000000
40
0.072000
41
1.111111
50
-90.000000
1
microcontrolandos.blogspot.com
0
POLYLINE
8
0
66
1
40
0.016000
41
0.016000
0
VERTEX
8
0
10
-3.550000
20
0.750000
0
VERTEX
8
0
10
-3.500000
20
0.800000
0
SEQEND
8
0
0
POLYLINE
8
0
66
1
40
0.016000
41
0.016000
0
VERTEX
8
0
10
-3.550000
20
-0.550000
0
VERTEX
8
0
10
-3.500000
20
-0.600000
0
SEQEND
8
0
0
POLYLINE
8
0
66
1
40
0.016000
41
0.016000
0
VERTEX
8
0
10
-4.300000
20
-0.100000
0
VERTEX
8
0
10
-4.350000
20
-0.050000
0
SEQEND
8
0
0
POLYLINE
8
0
66
1
40
0.016000
41
0.016000
0
VERTEX
8
0
10
-4.300000
20
-0.500000
0
VERTEX
8
0
10
-4.300000
20
-0.550000
0
VERTEX
8
0
10
-4.350000
20
-0.600000
0
SEQEND
8
0
0
POLYLINE
8
0
66
1
40
0.016000
41
0.016000
0
VERTEX
8
0
10
-4.200000
20
0.700000
0
VERTEX
8
0
10
-4.150000
20
0.700000
0
VERTEX
8
0
10
-4.150000
20
0.750000
0
VERTEX
8
0
10
-4.200000
20
0.750000
0
VERTEX
8
0
10
-4.200000
20
0.700000
0
SEQEND
8
0
0
POLYLINE
8
0
66
1
40
0.016000
41
0.016000
0
VERTEX
8
0
10
-4.200000
20
0.600000
0
VERTEX
8
0
10
-4.150000
20
0.600000
0
VERTEX
8
0
10
-4.150000
20
0.650000
0
VERTEX
8
0
10
-4.200000
20
0.650000
0
VERTEX
8
0
10
-4.200000
20
0.600000
0
SEQEND
8
0
0
POLYLINE
8
0
66
1
40
0.016000
41
0.016000
0
VERTEX
8
0
10
-4.200000
20
0.500000
0
VERTEX
8
0
10
-4.150000
20
0.500000
0
VERTEX
8
0
10
-4.150000
20
0.550000
0
VERTEX
8
0
10
-4.200000
20
0.550000
0
VERTEX
8
0
10
-4.200000
20
0.500000
0
SEQEND
8
0
0
POLYLINE
8
0
66
1
40
0.016000
41
0.016000
0
VERTEX
8
0
10
-4.200000
20
0.400000
0
VERTEX
8
0
10
-4.150000
20
0.400000
0
VERTEX
8
0
10
-4.150000
20
0.450000
0
VERTEX
8
0
10
-4.200000
20
0.450000
0
VERTEX
8
0
10
-4.200000
20
0.400000
0
SEQEND
8
0
0
POLYLINE
8
0
66
1
40
0.016000
41
0.016000
0
VERTEX
8
0
10
-4.200000
20
0.300000
0
VERTEX
8
0
10
-4.150000
20
0.300000
0
VERTEX
8
0
10
-4.150000
20
0.350000
0
VERTEX
8
0
10
-4.200000
20
0.350000
0
VERTEX
8
0
10
-4.200000
20
0.300000
0
SEQEND
8
0
0
POLYLINE
8
0
66
1
40
0.016000
41
0.016000
0
VERTEX
8
0
10
-4.200000
20
0.200000
0
VERTEX
8
0
10
-4.150000
20
0.200000
0
VERTEX
8
0
10
-4.150000
20
0.250000
0
VERTEX
8
0
10
-4.200000
20
0.250000
0
VERTEX
8
0
10
-4.200000
20
0.200000
0
SEQEND
8
0
0
POLYLINE
8
0
66
1
40
0.016000
41
0.016000
0
VERTEX
8
0
10
-4.200000
20
0.100000
0
VERTEX
8
0
10
-4.150000
20
0.100000
0
VERTEX
8
0
10
-4.150000
20
0.150000
0
VERTEX
8
0
10
-4.200000
20
0.150000
0
VERTEX
8
0
10
-4.200000
20
0.100000
0
SEQEND
8
0
0
POLYLINE
8
0
66
1
40
0.016000
41
0.016000
0
VERTEX
8
0
10
-4.200000
20
0.000000
0
VERTEX
8
0
10
-4.150000
20
0.000000
0
VERTEX
8
0
10
-4.150000
20
0.050000
0
VERTEX
8
0
10
-4.200000
20
0.050000
0
VERTEX
8
0
10
-4.200000
20
0.000000
0
SEQEND
8
0
0
POLYLINE
8
0
66
1
40
0.016000
41
0.016000
0
VERTEX
8
0
10
-4.200000
20
-0.100000
0
VERTEX
8
0
10
-4.150000
20
-0.100000
0
VERTEX
8
0
10
-4.150000
20
-0.050000
0
VERTEX
8
0
10
-4.200000
20
-0.050000
0
VERTEX
8
0
10
-4.200000
20
-0.100000
0
SEQEND
8
0
0
POLYLINE
8
0
66
1
40
0.016000
41
0.016000
0
VERTEX
8
0
10
-4.200000
20
-0.200000
0
VERTEX
8
0
10
-4.150000
20
-0.200000
0
VERTEX
8
0
10
-4.150000
20
-0.150000
0
VERTEX
8
0
10
-4.200000
20
-0.150000
0
VERTEX
8
0
10
-4.200000
20
-0.200000
0
SEQEND
8
0
0
POLYLINE
8
0
66
1
40
0.016000
41
0.016000
0
VERTEX
8
0
10
-4.200000
20
-0.300000
0
VERTEX
8
0
10
-4.150000
20
-0.300000
0
VERTEX
8
0
10
-4.150000
20
-0.250000
0
VERTEX
8
0
10
-4.200000
20
-0.250000
0
VERTEX
8
0
10
-4.200000
20
-0.300000
0
SEQEND
8
0
0
POLYLINE
8
0
66
1
40
0.016000
41
0.016000
0
VERTEX
8
0
10
-4.200000
20
-0.400000
0
VERTEX
8
0
10
-4.150000
20
-0.400000
0
VERTEX
8
0
10
-4.150000
20
-0.350000
0
VERTEX
8
0
10
-4.200000
20
-0.350000
0
VERTEX
8
0
10
-4.200000
20
-0.400000
0
SEQEND
8
0
0
POLYLINE
8
0
66
1
40
0.016000
41
0.016000
0
VERTEX
8
0
10
-4.200000
20
-0.500000
0
VERTEX
8
0
10
-4.150000
20
-0.500000
0
VERTEX
8
0
10
-4.150000
20
-0.450000
0
VERTEX
8
0
10
-4.200000
20
-0.450000
0
VERTEX
8
0
10
-4.200000
20
-0.500000
0
SEQEND
8
0
0
POLYLINE
8
0
66
1
40
0.016000
41
0.016000
0
VERTEX
8
0
10
-4.200000
20
-0.600000
0
VERTEX
8
0
10
-4.150000
20
-0.600000
0
VERTEX
8
0
10
-4.150000
20
-0.550000
0
VERTEX
8
0
10
-4.200000
20
-0.550000
0
VERTEX
8
0
10
-4.200000
20
-0.600000
0
SEQEND
8
0
0
TEXT
8
0
10
-3.380000
20
-0.540000
40
0.080000
41
1.000000
1
TX
0
TEXT
8
0
10
-3.380000
20
-0.640000
40
0.080000
41
1.000000
1
RX
0
POLYLINE
8
0
66
1
40
0.016000
41
0.016000
0
VERTEX
8
0
10
-2.600000
20
-0.600000
0
VERTEX
8
0
10
-2.800000
20
-0.600000
0
SEQEND
8
0
0
TEXT
8
0
10
-3.410000
20
-0.640000
40
0.080000
41
1.000000
1
PD0/RXD
0
TEXT
8
0
10
-2.700000
20
-0.590000
40
0.080000
41
1.000000
1
0
0
POLYLINE
8
0
66
1
40
0.016000
41
0.016000
0
VERTEX
8
0
10
-2.600000
20
-0.500000
0
VERTEX
8
0
10
-2.800000
20
-0.500000
0
SEQEND
8
0
0
TEXT
8
0
10
-3.410000
20
-0.540000
40
0.080000
41
1.000000
1
PD1/TXD
0
TEXT
8
0
10
-2.700000
20
-0.490000
40
0.080000
41
1.000000
1
1
0
POLYLINE
8
0
66
1
40
0.016000
41
0.016000
0
VERTEX
8
0
10
-2.600000
20
-0.400000
0
VERTEX
8
0
10
-2.800000
20
-0.400000
0
SEQEND
8
0
0
TEXT
8
0
10
-3.490000
20
-0.440000
40
0.080000
41
1.000000
1
PD2/INT0
0
TEXT
8
0
10
-2.700000
20
-0.390000
40
0.080000
41
1.000000
1
2
0
POLYLINE
8
0
66
1
40
0.016000
41
0.016000
0
VERTEX
8
0
10
-2.600000
20
-0.300000
0
VERTEX
8
0
10
-2.800000
20
-0.300000
0
SEQEND
8
0
0
TEXT
8
0
10
-3.490000
20
-0.340000
40
0.080000
41
1.000000
1
PD3/INT1
0
TEXT
8
0
10
-2.700000
20
-0.290000
40
0.080000
41
1.000000
1
3
0
POLYLINE
8
0
66
1
40
0.016000
41
0.016000
0
VERTEX
8
0
10
-2.600000
20
-0.200000
0
VERTEX
8
0
10
-2.800000
20
-0.200000
0
SEQEND
8
0
0
TEXT
8
0
10
-3.650000
20
-0.240000
40
0.080000
41
1.000000
1
PD4/T0/XCK
0
TEXT
8
0
10
-2.700000
20
-0.190000
40
0.080000
41
1.000000
1
4
0
POLYLINE
8
0
66
1
40
0.016000
41
0.016000
0
VERTEX
8
0
10
-2.600000
20
-0.100000
0
VERTEX
8
0
10
-2.800000
20
-0.100000
0
SEQEND
8
0
0
TEXT
8
0
10
-3.330000
20
-0.140000
40
0.080000
41
1.000000
1
PD5/T1
0
TEXT
8
0
10
-2.700000
20
-0.090000
40
0.080000
41
1.000000
1
5
0
POLYLINE
8
0
66
1
40
0.016000
41
0.016000
0
VERTEX
8
0
10
-2.600000
20
0.000000
0
VERTEX
8
0
10
-2.800000
20
0.000000
0
SEQEND
8
0
0
TEXT
8
0
10
-3.490000
20
-0.040000
40
0.080000
41
1.000000
1
PD6/AIN0
0
TEXT
8
0
10
-2.700000
20
0.010000
40
0.080000
41
1.000000
1
6
0
POLYLINE
8
0
66
1
40
0.016000
41
0.016000
0
VERTEX
8
0
10
-2.600000
20
0.100000
0
VERTEX
8
0
10
-2.800000
20
0.100000
0
SEQEND
8
0
0
TEXT
8
0
10
-3.490000
20
0.060000
40
0.080000
41
1.000000
1
PD7/AIN1
0
TEXT
8
0
10
-2.700000
20
0.110000
40
0.080000
41
1.000000
1
7
0
POLYLINE
8
0
66
1
40
0.016000
41
0.016000
0
VERTEX
8
0
10
-2.600000
20
0.300000
0
VERTEX
8
0
10
-2.800000
20
0.300000
0
SEQEND
8
0
0
TEXT
8
0
10
-3.890000
20
0.260000
40
0.080000
41
1.000000
1
PB0/ICP1/CLKO
0
TEXT
8
0
10
-2.700000
20
0.310000
40
0.080000
41
1.000000
1
8
0
POLYLINE
8
0
66
1
40
0.016000
41
0.016000
0
VERTEX
8
0
10
-2.600000
20
0.400000
0
VERTEX
8
0
10
-2.800000
20
0.400000
0
SEQEND
8
0
0
TEXT
8
0
10
-3.490000
20
0.360000
40
0.080000
41
1.000000
1
PB1/OC1A
0
TEXT
8
0
10
-2.700000
20
0.410000
40
0.080000
41
1.000000
1
9
0
POLYLINE
8
0
66
1
40
0.016000
41
0.016000
0
VERTEX
8
0
10
-2.600000
20
0.500000
0
VERTEX
8
0
10
-2.800000
20
0.500000
0
SEQEND
8
0
0
TEXT
8
0
10
-3.730000
20
0.460000
40
0.080000
41
1.000000
1
PB2/SS/OC1B
0
TEXT
8
0
10
-2.700000
20
0.510000
40
0.080000
41
1.000000
1
10
0
POLYLINE
8
0
66
1
40
0.016000
41
0.016000
0
VERTEX
8
0
10
-2.600000
20
0.600000
0
VERTEX
8
0
10
-2.800000
20
0.600000
0
SEQEND
8
0
0
TEXT
8
0
10
-3.890000
20
0.560000
40
0.080000
41
1.000000
1
PB3/MOSI/OC2A
0
TEXT
8
0
10
-2.700000
20
0.610000
40
0.080000
41
1.000000
1
11
0
POLYLINE
8
0
66
1
40
0.016000
41
0.016000
0
VERTEX
8
0
10
-2.600000
20
0.700000
0
VERTEX
8
0
10
-2.800000
20
0.700000
0
SEQEND
8
0
0
TEXT
8
0
10
-3.490000
20
0.660000
40
0.080000
41
1.000000
1
PB4/MISO
0
TEXT
8
0
10
-2.700000
20
0.710000
40
0.080000
41
1.000000
1
12
0
POLYLINE
8
0
66
1
40
0.016000
41
0.016000
0
VERTEX
8
0
10
-2.600000
20
0.800000
0
VERTEX
8
0
10
-2.800000
20
0.800000
0
SEQEND
8
0
0
TEXT
8
0
10
-3.410000
20
0.760000
40
0.080000
41
1.000000
1
PB5/SCK
0
TEXT
8
0
10
-2.700000
20
0.810000
40
0.080000
41
1.000000
1
13
0
POLYLINE
8
0
66
1
40
0.016000
41
0.016000
0
VERTEX
8
0
10
-2.600000
20
1.000000
0
VERTEX
8
0
10
-2.800000
20
1.000000
0
SEQEND
8
0
0
TEXT
8
0
10
-3.170000
20
0.960000
40
0.080000
41
1.000000
1
AREF
0
POLYLINE
8
0
66
1
40
0.016000
41
0.016000
0
VERTEX
8
0
10
-5.200000
20
-0.550000
0
VERTEX
8
0
10
-5.000000
20
-0.550000
0
SEQEND
8
0
0
TEXT
8
0
10
-4.950000
20
-0.590000
40
0.080000
41
1.000000
1
PC5/ADC5/SCL
0
TEXT
8
0
10
-5.260000
20
-0.540000
40
0.080000
41
1.000000
1
A5
0
POLYLINE
8
0
66
1
40
0.016000
41
0.016000
0
VERTEX
8
0
10
-5.200000
20
-0.450000
0
VERTEX
8
0
10
-5.000000
20
-0.450000
0
SEQEND
8
0
0
TEXT
8
0
10
-4.950000
20
-0.490000
40
0.080000
41
1.000000
1
PC4/ADC4/SDA
0
TEXT
8
0
10
-5.260000
20
-0.440000
40
0.080000
41
1.000000
1
A4
0
POLYLINE
8
0
66
1
40
0.016000
41
0.016000
0
VERTEX
8
0
10
-5.200000
20
-0.350000
0
VERTEX
8
0
10
-5.000000
20
-0.350000
0
SEQEND
8
0
0
TEXT
8
0
10
-4.950000
20
-0.390000
40
0.080000
41
1.000000
1
PC3/ADC3
0
TEXT
8
0
10
-5.260000
20
-0.340000
40
0.080000
41
1.000000
1
A3
0
POLYLINE
8
0
66
1
40
0.016000
41
0.016000
0
VERTEX
8
0
10
-5.200000
20
-0.250000
0
VERTEX
8
0
10
-5.000000
20
-0.250000
0
SEQEND
8
0
0
TEXT
8
0
10
-4.950000
20
-0.290000
40
0.080000
41
1.000000
1
PC2/ADC2
0
TEXT
8
0
10
-5.260000
20
-0.240000
40
0.080000
41
1.000000
1
A2
0
POLYLINE
8
0
66
1
40
0.016000
41
0.016000
0
VERTEX
8
0
10
-5.200000
20
-0.150000
0
VERTEX
8
0
10
-5.000000
20
-0.150000
0
SEQEND
8
0
0
TEXT
8
0
10
-4.950000
20
-0.190000
40
0.080000
41
1.000000
1
PC1/ADC1
0
TEXT
8
0
10
-5.260000
20
-0.140000
40
0.080000
41
1.000000
1
A1
0
POLYLINE
8
0
66
1
40
0.016000
41
0.016000
0
VERTEX
8
0
10
-5.200000
20
-0.050000
0
VERTEX
8
0
10
-5.000000
20
-0.050000
0
SEQEND
8
0
0
TEXT
8
0
10
-4.950000
20
-0.090000
40
0.080000
41
1.000000
1
PC0/ADC0
0
TEXT
8
0
10
-5.260000
20
-0.040000
40
0.080000
41
1.000000
1
A0
0
POLYLINE
8
0
66
1
40
0.016000
41
0.016000
0
VERTEX
8
0
10
-5.200000
20
0.650000
0
VERTEX
8
0
10
-5.000000
20
0.650000
0
SEQEND
8
0
0
TEXT
8
0
10
-4.950000
20
0.610000
40
0.080000
41
1.000000
1
RESET
0
TEXT
8
0
10
-5.008000
20
1.773000
40
0.120000
41
0.666667
1
DUINO1
0
TEXT
8
0
10
-5.008000
20
-0.898000
40
0.080000
41
1.000000
1
ARDUINO UNO
0
POLYLINE
8
0
66
1
40
0.016000
41
0.016000
0
VERTEX
8
0
10
2.300000
20
-2.180000
0
VERTEX
8
0
10
4.170000
20
-2.180000
0
VERTEX
8
0
10
4.170000
20
-2.990000
0
VERTEX
8
0
10
2.300000
20
-2.990000
0
VERTEX
8
0
10
2.300000
20
-2.180000
0
SEQEND
8
0
0
POLYLINE
8
0
66
1
40
0.016000
41
0.016000
0
VERTEX
8
0
10
2.870000
20
-2.320000
0
VERTEX
8
0
10
4.110000
20
-2.320000
0
VERTEX
8
0
10
4.110000
20
-2.740000
0
VERTEX
8
0
10
2.870000
20
-2.740000
0
VERTEX
8
0
10
2.870000
20
-2.320000
0
SEQEND
8
0
0
POLYLINE
8
0
66
1
40
0.016000
41
0.016000
0
VERTEX
8
0
10
4.080000
20
-2.350000
0
VERTEX
8
0
10
3.800000
20
-2.350000
0
SEQEND
8
0
0
POLYLINE
8
0
66
1
40
0.016000
41
0.016000
0
VERTEX
8
0
10
4.080000
20
-2.450000
0
VERTEX
8
0
10
3.800000
20
-2.450000
0
SEQEND
8
0
0
POLYLINE
8
0
66
1
40
0.016000
41
0.016000
0
VERTEX
8
0
10
4.080000
20
-2.550000
0
VERTEX
8
0
10
3.800000
20
-2.550000
0
SEQEND
8
0
0
POLYLINE
8
0
66
1
40
0.016000
41
0.016000
0
VERTEX
8
0
10
4.080000
20
-2.650000
0
VERTEX
8
0
10
3.800000
20
-2.650000
0
SEQEND
8
0
0
POLYLINE
8
0
66
1
40
0.016000
41
0.016000
0
VERTEX
8
0
10
4.080000
20
-2.400000
0
VERTEX
8
0
10
3.800000
20
-2.400000
0
SEQEND
8
0
0
POLYLINE
8
0
66
1
40
0.016000
41
0.016000
0
VERTEX
8
0
10
4.080000
20
-2.500000
0
VERTEX
8
0
10
3.800000
20
-2.500000
0
SEQEND
8
0
0
POLYLINE
8
0
66
1
40
0.016000
41
0.016000
0
VERTEX
8
0
10
4.080000
20
-2.600000
0
VERTEX
8
0
10
3.800000
20
-2.600000
0
SEQEND
8
0
0
POLYLINE
8
0
66
1
40
0.016000
41
0.016000
0
VERTEX
8
0
10
4.080000
20
-2.700000
0
VERTEX
8
0
10
3.800000
20
-2.700000
0
SEQEND
8
0
0
POLYLINE
8
0
66
1
40
0.016000
41
0.016000
0
VERTEX
8
0
10
4.080000
20
-2.350000
0
VERTEX
8
0
10
4.080000
20
-2.400000
0
SEQEND
8
0
0
POLYLINE
8
0
66
1
40
0.016000
41
0.016000
0
VERTEX
8
0
10
4.080000
20
-2.450000
0
VERTEX
8
0
10
4.080000
20
-2.500000
0
SEQEND
8
0
0
POLYLINE
8
0
66
1
40
0.016000
41
0.016000
0
VERTEX
8
0
10
4.080000
20
-2.550000
0
VERTEX
8
0
10
4.080000
20
-2.600000
0
SEQEND
8
0
0
POLYLINE
8
0
66
1
40
0.016000
41
0.016000
0
VERTEX
8
0
10
4.080000
20
-2.650000
0
VERTEX
8
0
10
4.080000
20
-2.700000
0
SEQEND
8
0
0
POLYLINE
8
0
66
1
40
0.016000
41
0.016000
0
VERTEX
8
0
10
3.790000
20
-2.400000
0
VERTEX
8
0
10
3.790000
20
-2.450000
0
SEQEND
8
0
0
POLYLINE
8
0
66
1
40
0.016000
41
0.016000
0
VERTEX
8
0
10
3.790000
20
-2.500000
0
VERTEX
8
0
10
3.790000
20
-2.550000
0
SEQEND
8
0
0
POLYLINE
8
0
66
1
40
0.016000
41
0.016000
0
VERTEX
8
0
10
3.790000
20
-2.600000
0
VERTEX
8
0
10
3.790000
20
-2.650000
0
SEQEND
8
0
0
POLYLINE
8
0
66
1
40
0.016000
41
0.016000
0
VERTEX
8
0
10
3.350000
20
-2.670000
0
VERTEX
8
0
10
3.650000
20
-2.670000
0
VERTEX
8
0
10
3.650000
20
-2.380000
0
VERTEX
8
0
10
3.350000
20
-2.380000
0
VERTEX
8
0
10
3.350000
20
-2.670000
0
SEQEND
8
0
0
CIRCLE
8
0
10
3.610000
20
-2.620000
40
0.022426
0
TEXT
8
0
10
3.140000
20
-2.580000
40
0.040000
41
2.000000
1
Bluetooth
0
TEXT
8
0
10
3.300000
20
-2.510000
40
0.080000
41
1.000000
1
HC-05
0
POLYLINE
8
0
66
1
40
0.016000
41
0.016000
0
VERTEX
8
0
10
2.990000
20
-2.670000
0
VERTEX
8
0
10
3.290000
20
-2.670000
0
VERTEX
8
0
10
3.290000
20
-2.380000
0
VERTEX
8
0
10
2.990000
20
-2.380000
0
VERTEX
8
0
10
2.990000
20
-2.670000
0
SEQEND
8
0
0
CIRCLE
8
0
10
3.250000
20
-2.620000
40
0.022426
0
POLYLINE
8
0
66
1
40
0.016000
41
0.016000
0
VERTEX
8
0
10
3.710000
20
-2.330000
0
VERTEX
8
0
10
3.760000
20
-2.330000
0
VERTEX
8
0
10
3.760000
20
-2.230000
0
VERTEX
8
0
10
3.710000
20
-2.230000
0
VERTEX
8
0
10
3.710000
20
-2.330000
0
SEQEND
8
0
0
POLYLINE
8
0
66
1
40
0.016000
41
0.016000
0
VERTEX
8
0
10
3.610000
20
-2.330000
0
VERTEX
8
0
10
3.660000
20
-2.330000
0
VERTEX
8
0
10
3.660000
20
-2.230000
0
VERTEX
8
0
10
3.610000
20
-2.230000
0
VERTEX
8
0
10
3.610000
20
-2.330000
0
SEQEND
8
0
0
POLYLINE
8
0
66
1
40
0.016000
41
0.016000
0
VERTEX
8
0
10
3.510000
20
-2.330000
0
VERTEX
8
0
10
3.560000
20
-2.330000
0
VERTEX
8
0
10
3.560000
20
-2.230000
0
VERTEX
8
0
10
3.510000
20
-2.230000
0
VERTEX
8
0
10
3.510000
20
-2.330000
0
SEQEND
8
0
0
POLYLINE
8
0
66
1
40
0.016000
41
0.016000
0
VERTEX
8
0
10
3.410000
20
-2.330000
0
VERTEX
8
0
10
3.460000
20
-2.330000
0
VERTEX
8
0
10
3.460000
20
-2.230000
0
VERTEX
8
0
10
3.410000
20
-2.230000
0
VERTEX
8
0
10
3.410000
20
-2.330000
0
SEQEND
8
0
0
POLYLINE
8
0
66
1
40
0.016000
41
0.016000
0
VERTEX
8
0
10
3.310000
20
-2.330000
0
VERTEX
8
0
10
3.360000
20
-2.330000
0
VERTEX
8
0
10
3.360000
20
-2.230000
0
VERTEX
8
0
10
3.310000
20
-2.230000
0
VERTEX
8
0
10
3.310000
20
-2.330000
0
SEQEND
8
0
0
POLYLINE
8
0
66
1
40
0.016000
41
0.016000
0
VERTEX
8
0
10
3.200000
20
-2.330000
0
VERTEX
8
0
10
3.250000
20
-2.330000
0
VERTEX
8
0
10
3.250000
20
-2.230000
0
VERTEX
8
0
10
3.200000
20
-2.230000
0
VERTEX
8
0
10
3.200000
20
-2.330000
0
SEQEND
8
0
0
POLYLINE
8
0
66
1
40
0.016000
41
0.016000
0
VERTEX
8
0
10
3.710000
20
-2.830000
0
VERTEX
8
0
10
3.760000
20
-2.830000
0
VERTEX
8
0
10
3.760000
20
-2.730000
0
VERTEX
8
0
10
3.710000
20
-2.730000
0
VERTEX
8
0
10
3.710000
20
-2.830000
0
SEQEND
8
0
0
POLYLINE
8
0
66
1
40
0.016000
41
0.016000
0
VERTEX
8
0
10
3.610000
20
-2.830000
0
VERTEX
8
0
10
3.660000
20
-2.830000
0
VERTEX
8
0
10
3.660000
20
-2.730000
0
VERTEX
8
0
10
3.610000
20
-2.730000
0
VERTEX
8
0
10
3.610000
20
-2.830000
0
SEQEND
8
0
0
POLYLINE
8
0
66
1
40
0.016000
41
0.016000
0
VERTEX
8
0
10
3.510000
20
-2.830000
0
VERTEX
8
0
10
3.560000
20
-2.830000
0
VERTEX
8
0
10
3.560000
20
-2.730000
0
VERTEX
8
0
10
3.510000
20
-2.730000
0
VERTEX
8
0
10
3.510000
20
-2.830000
0
SEQEND
8
0
0
POLYLINE
8
0
66
1
40
0.016000
41
0.016000
0
VERTEX
8
0
10
3.410000
20
-2.830000
0
VERTEX
8
0
10
3.460000
20
-2.830000
0
VERTEX
8
0
10
3.460000
20
-2.730000
0
VERTEX
8
0
10
3.410000
20
-2.730000
0
VERTEX
8
0
10
3.410000
20
-2.830000
0
SEQEND
8
0
0
POLYLINE
8
0
66
1
40
0.016000
41
0.016000
0
VERTEX
8
0
10
3.310000
20
-2.830000
0
VERTEX
8
0
10
3.360000
20
-2.830000
0
VERTEX
8
0
10
3.360000
20
-2.730000
0
VERTEX
8
0
10
3.310000
20
-2.730000
0
VERTEX
8
0
10
3.310000
20
-2.830000
0
SEQEND
8
0
0
POLYLINE
8
0
66
1
40
0.016000
41
0.016000
0
VERTEX
8
0
10
3.200000
20
-2.830000
0
VERTEX
8
0
10
3.250000
20
-2.830000
0
VERTEX
8
0
10
3.250000
20
-2.730000
0
VERTEX
8
0
10
3.200000
20
-2.730000
0
VERTEX
8
0
10
3.200000
20
-2.830000
0
SEQEND
8
0
0
POLYLINE
8
0
66
1
40
0.016000
41
0.016000
0
VERTEX
8
0
10
3.100000
20
-2.830000
0
VERTEX
8
0
10
3.150000
20
-2.830000
0
VERTEX
8
0
10
3.150000
20
-2.730000
0
VERTEX
8
0
10
3.100000
20
-2.730000
0
VERTEX
8
0
10
3.100000
20
-2.830000
0
SEQEND
8
0
0
POLYLINE
8
0
66
1
40
0.016000
41
0.016000
0
VERTEX
8
0
10
3.000000
20
-2.830000
0
VERTEX
8
0
10
3.050000
20
-2.830000
0
VERTEX
8
0
10
3.050000
20
-2.730000
0
VERTEX
8
0
10
3.000000
20
-2.730000
0
VERTEX
8
0
10
3.000000
20
-2.830000
0
SEQEND
8
0
0
POLYLINE
8
0
66
1
40
0.016000
41
0.016000
0
VERTEX
8
0
10
2.900000
20
-2.830000
0
VERTEX
8
0
10
2.950000
20
-2.830000
0
VERTEX
8
0
10
2.950000
20
-2.730000
0
VERTEX
8
0
10
2.900000
20
-2.730000
0
VERTEX
8
0
10
2.900000
20
-2.830000
0
SEQEND
8
0
0
POLYLINE
8
0
66
1
40
0.016000
41
0.016000
0
VERTEX
8
0
10
3.100000
20
-2.330000
0
VERTEX
8
0
10
3.150000
20
-2.330000
0
VERTEX
8
0
10
3.150000
20
-2.230000
0
VERTEX
8
0
10
3.100000
20
-2.230000
0
VERTEX
8
0
10
3.100000
20
-2.330000
0
SEQEND
8
0
0
POLYLINE
8
0
66
1
40
0.016000
41
0.016000
0
VERTEX
8
0
10
3.000000
20
-2.330000
0
VERTEX
8
0
10
3.050000
20
-2.330000
0
VERTEX
8
0
10
3.050000
20
-2.230000
0
VERTEX
8
0
10
3.000000
20
-2.230000
0
VERTEX
8
0
10
3.000000
20
-2.330000
0
SEQEND
8
0
0
POLYLINE
8
0
66
1
40
0.016000
41
0.016000
0
VERTEX
8
0
10
2.900000
20
-2.330000
0
VERTEX
8
0
10
2.950000
20
-2.330000
0
VERTEX
8
0
10
2.950000
20
-2.230000
0
VERTEX
8
0
10
2.900000
20
-2.230000
0
VERTEX
8
0
10
2.900000
20
-2.330000
0
SEQEND
8
0
0
POLYLINE
8
0
66
1
40
0.016000
41
0.016000
0
VERTEX
8
0
10
2.770000
20
-2.400000
0
VERTEX
8
0
10
2.870000
20
-2.400000
0
VERTEX
8
0
10
2.870000
20
-2.350000
0
VERTEX
8
0
10
2.770000
20
-2.350000
0
VERTEX
8
0
10
2.770000
20
-2.400000
0
SEQEND
8
0
0
POLYLINE
8
0
66
1
40
0.016000
41
0.016000
0
VERTEX
8
0
10
2.770000
20
-2.500000
0
VERTEX
8
0
10
2.870000
20
-2.500000
0
VERTEX
8
0
10
2.870000
20
-2.450000
0
VERTEX
8
0
10
2.770000
20
-2.450000
0
VERTEX
8
0
10
2.770000
20
-2.500000
0
SEQEND
8
0
0
POLYLINE
8
0
66
1
40
0.016000
41
0.016000
0
VERTEX
8
0
10
2.770000
20
-2.600000
0
VERTEX
8
0
10
2.870000
20
-2.600000
0
VERTEX
8
0
10
2.870000
20
-2.550000
0
VERTEX
8
0
10
2.770000
20
-2.550000
0
VERTEX
8
0
10
2.770000
20
-2.600000
0
SEQEND
8
0
0
POLYLINE
8
0
66
1
40
0.016000
41
0.016000
0
VERTEX
8
0
10
2.770000
20
-2.700000
0
VERTEX
8
0
10
2.870000
20
-2.700000
0
VERTEX
8
0
10
2.870000
20
-2.650000
0
VERTEX
8
0
10
2.770000
20
-2.650000
0
VERTEX
8
0
10
2.770000
20
-2.700000
0
SEQEND
8
0
0
CIRCLE
8
0
10
2.410000
20
-2.300000
40
0.046904
0
POLYLINE
8
0
66
1
40
0.050000
41
0.050000
0
VERTEX
8
0
10
2.390000
20
-2.300000
0
VERTEX
8
0
10
2.120000
20
-2.300000
0
SEQEND
8
0
0
CIRCLE
8
0
10
2.410000
20
-2.400000
40
0.046904
0
POLYLINE
8
0
66
1
40
0.050000
41
0.050000
0
VERTEX
8
0
10
2.390000
20
-2.400000
0
VERTEX
8
0
10
2.120000
20
-2.400000
0
SEQEND
8
0
0
CIRCLE
8
0
10
2.410000
20
-2.500000
40
0.046904
0
POLYLINE
8
0
66
1
40
0.050000
41
0.050000
0
VERTEX
8
0
10
2.390000
20
-2.500000
0
VERTEX
8
0
10
2.120000
20
-2.500000
0
SEQEND
8
0
0
CIRCLE
8
0
10
2.410000
20
-2.600000
40
0.046904
0
POLYLINE
8
0
66
1
40
0.050000
41
0.050000
0
VERTEX
8
0
10
2.390000
20
-2.600000
0
VERTEX
8
0
10
2.120000
20
-2.600000
0
SEQEND
8
0
0
CIRCLE
8
0
10
2.410000
20
-2.700000
40
0.046904
0
POLYLINE
8
0
66
1
40
0.050000
41
0.050000
0
VERTEX
8
0
10
2.390000
20
-2.700000
0
VERTEX
8
0
10
2.120000
20
-2.700000
0
SEQEND
8
0
0
CIRCLE
8
0
10
2.410000
20
-2.800000
40
0.046904
0
POLYLINE
8
0
66
1
40
0.050000
41
0.050000
0
VERTEX
8
0
10
2.390000
20
-2.800000
0
VERTEX
8
0
10
2.120000
20
-2.800000
0
SEQEND
8
0
0
TEXT
8
0
10
2.460000
20
-2.338000
40
0.096000
41
0.833333
1
Key
0
TEXT
8
0
10
2.460000
20
-2.448000
40
0.096000
41
0.833333
1
Vcc
0
TEXT
8
0
10
2.460000
20
-2.548000
40
0.096000
41
0.833333
1
GND
0
TEXT
8
0
10
2.470000
20
-2.658000
40
0.096000
41
0.833333
1
TXD
0
TEXT
8
0
10
2.470000
20
-2.758000
40
0.096000
41
0.833333
1
RXD
0
TEXT
8
0
10
2.400000
20
-2.848000
40
0.096000
41
0.833333
1
State
0
TEXT
8
0
10
2.130000
20
-2.958000
40
0.096000
41
0.833333
1
www.TheEngineeringProjects.com
0
POLYLINE
8
0
66
1
40
0.016000
41
0.016000
0
VERTEX
8
0
10
1.970000
20
-2.700000
0
VERTEX
8
0
10
2.170000
20
-2.700000
0
SEQEND
8
0
0
POLYLINE
8
0
66
1
40
0.016000
41
0.016000
0
VERTEX
8
0
10
1.970000
20
-2.600000
0
VERTEX
8
0
10
2.170000
20
-2.600000
0
SEQEND
8
0
0
TEXT
8
0
10
2.095000
20
-2.157000
40
0.120000
41
0.666667
1
HC1
0
TEXT
8
0
10
2.095000
20
-3.088000
40
0.080000
41
1.000000
1
BLUETOOTH HC-05
0
POLYLINE
8
0
66
1
40
0.016000
41
0.016000
0
VERTEX
8
0
10
0.850000
20
2.180000
0
VERTEX
8
0
10
0.950000
20
2.180000
0
VERTEX
8
0
10
0.950000
20
2.180000
0
VERTEX
8
0
10
0.850000
20
2.180000
0
VERTEX
8
0
10
0.850000
20
2.180000
0
SEQEND
8
0
0
CIRCLE
8
0
10
-1.700000
20
2.600000
40
0.020000
0
CIRCLE
8
0
10
1.200000
20
0.300000
40
0.020000
0
ENDSEC
0
EOF

